<?xml version="1.0" encoding="UTF-8" standalone="no"?>
<svg
   xmlns:dc="http://purl.org/dc/elements/1.1/"
   xmlns:cc="http://creativecommons.org/ns#"
   xmlns:rdf="http://www.w3.org/1999/02/22-rdf-syntax-ns#"
   xmlns:svg="http://www.w3.org/2000/svg"
   xmlns="http://www.w3.org/2000/svg"
   xmlns:sodipodi="http://sodipodi.sourceforge.net/DTD/sodipodi-0.dtd"
   xmlns:inkscape="http://www.inkscape.org/namespaces/inkscape"
   xml:space="preserve"
   enable-background="new 0 0 966.2 469.1"
   viewBox="0 0 966.2 469.1"
   y="0px"
   x="0px"
   sodipodi:docname="VMware_SDDC.svg"
   inkscape:version="1.0 (4035a4f, 2020-05-01)"
   id="Layer_1"
   version="1.1"><metadata
   id="metadata254"><rdf:RDF><cc:Work
       rdf:about=""><dc:format>image/svg+xml</dc:format><dc:type
         rdf:resource="http://purl.org/dc/dcmitype/StillImage" /></cc:Work></rdf:RDF></metadata><defs
   id="defs252" />
<rect
   id="rect135"
   height="468"
   width="966.2"
   fill="#FFFFFF" />
<sodipodi:namedview
   inkscape:document-rotation="0"
   showgrid="false"
   pagecolor="#ffffff"
   objecttolerance="10"
   inkscape:zoom="1.0965812"
   inkscape:window-y="203"
   inkscape:window-x="30"
   inkscape:window-width="1220"
   inkscape:window-maximized="0"
   inkscape:window-height="754"
   inkscape:pageshadow="2"
   inkscape:pageopacity="0"
   inkscape:cy="234.55"
   inkscape:cx="483.10001"
   inkscape:current-layer="Layer_1"
   id="namedview194"
   guidetolerance="10"
   gridtolerance="10"
   borderopacity="1"
   bordercolor="#666666">
	</sodipodi:namedview>
<rect
   height="468"
   width="190.6"
   fill="#686B70"
   id="rect2" />
<rect
   height="148.5"
   width="381.2"
   fill="#006EA4"
   y="320.6"
   x="195"
   id="rect4" />
<rect
   height="148.5"
   width="381.2"
   fill="#19BFD3"
   x="195"
   id="rect6" />
<rect
   height="148.5"
   width="381.2"
   fill="#218FCF"
   y="160.3"
   x="195"
   id="rect8" />
<rect
   height="468"
   width="190.6"
   fill="#1E4488"
   x="580.6"
   id="rect10" />
<rect
   height="468"
   width="190.6"
   fill="#78BE43"
   x="775.6"
   id="rect12" />
<g
   id="g150">
	<rect
   height="66"
   width="161.5"
   stroke-miterlimit="10"
   stroke="#FFFFFF"
   fill="none"
   y="333.3"
   x="791.3"
   id="rect30" />
	<text
   enable-background="new    "
   transform="translate(840.3866,362.767)"
   id="text32"><tspan
     style="-inkscape-font-specification:Metropolis;font-family:Metropolis;font-weight:normal;font-style:normal;font-stretch:normal;font-variant:normal;"
     id="tspan145"
     font-size="16px"
     font-family="Metropolis-Regular"
     fill="#ffffff"
     y="0"
     x="0">VMware</tspan><tspan
     style="-inkscape-font-specification:Metropolis;font-family:Metropolis;font-weight:normal;font-style:normal;font-stretch:normal;font-variant:normal;"
     id="tspan147"
     font-size="16px"
     font-family="Metropolis-Regular"
     fill="#ffffff"
     y="16"
     x="-19.1">Carbon Black</tspan></text>
</g>
<g
   id="g158">
	<rect
   height="66"
   width="161.5"
   stroke-miterlimit="10"
   stroke="#FFFFFF"
   fill="none"
   y="203.9"
   x="791.3"
   id="rect34" />
	<text
   enable-background="new    "
   transform="translate(840.3869,233.4177)"
   id="text38"><tspan
     style="-inkscape-font-specification:Metropolis;font-family:Metropolis;font-weight:normal;font-style:normal;font-stretch:normal;font-variant:normal;"
     id="tspan153"
     font-size="16px"
     font-family="Metropolis-Regular"
     fill="#ffffff"
     y="0"
     x="0">VMware</tspan><tspan
     style="-inkscape-font-specification:Metropolis;font-family:Metropolis;font-weight:normal;font-style:normal;font-stretch:normal;font-variant:normal;"
     id="tspan155"
     font-size="16px"
     font-family="Metropolis-Regular"
     fill="#ffffff"
     y="16"
     x="-15.7">AppDefense</tspan></text>
</g>
<g
   id="g164">
	<rect
   height="38.9"
   width="232.8"
   stroke-miterlimit="10"
   stroke="#FFFFFF"
   fill="none"
   y="27.2"
   x="331.6"
   id="rect40" />
	
		<text
   style="-inkscape-font-specification:Metropolis;font-family:Metropolis;font-weight:normal;font-style:normal;font-stretch:normal;font-variant:normal;"
   font-size="16px"
   font-family="Metropolis-Regular"
   fill="#ffffff"
   transform="translate(386.6902,51.0652)"
   id="text42">Service Catalog</text>
	<rect
   height="38.9"
   width="232.8"
   stroke-miterlimit="10"
   stroke="#FFFFFF"
   fill="none"
   y="82.4"
   x="331.6"
   id="rect44" />
	
		<text
   style="-inkscape-font-specification:Metropolis;font-family:Metropolis;font-weight:normal;font-style:normal;font-stretch:normal;font-variant:normal;"
   font-size="16px"
   font-family="Metropolis-Regular"
   fill="#ffffff"
   transform="translate(374.9708,106.2992)"
   id="text46">Self-Service Portal</text>
</g>
<rect
   height="38.9"
   width="232.8"
   stroke-miterlimit="10"
   stroke="#FFFFFF"
   fill="none"
   y="164.8"
   x="331.6"
   id="rect52" />
<text
   style="-inkscape-font-specification:Metropolis;font-family:Metropolis;font-weight:normal;font-style:normal;font-stretch:normal;font-variant:normal;"
   font-size="16px"
   font-family="Metropolis-Regular"
   fill="#ffffff"
   transform="translate(380.6724,188.7176)"
   id="text54">VMware vSphere</text>
<g
   id="g173">
	<rect
   height="66"
   width="161.5"
   stroke-miterlimit="10"
   stroke="#FFFFFF"
   fill="none"
   y="203.9"
   x="595.2"
   id="rect18" />
	<text
   style="-inkscape-font-specification:Metropolis;font-family:Metropolis;font-weight:normal;font-style:normal;font-stretch:normal;font-variant:normal;"
   id="text169"
   font-size="16px"
   font-family="Metropolis-Regular"
   fill="#ffffff"
   transform="translate(621.8544,231.818)">Site Recovery</text>
	<text
   style="-inkscape-font-specification:Metropolis;font-family:Metropolis;font-weight:normal;font-style:normal;font-stretch:normal;font-variant:normal;"
   id="text171"
   font-size="16px"
   font-family="Metropolis-Regular"
   fill="#ffffff"
   transform="translate(641.5544,251.018)">Manager</text>
</g>
<g
   id="g180">
	<rect
   height="66"
   width="161.5"
   stroke-miterlimit="10"
   stroke="#FFFFFF"
   fill="none"
   y="333.3"
   x="595.2"
   id="rect20" />
	<text
   style="-inkscape-font-specification:Metropolis;font-family:Metropolis;font-weight:normal;font-style:normal;font-stretch:normal;font-variant:normal;"
   id="text176"
   font-size="16px"
   font-family="Metropolis-Regular"
   fill="#ffffff"
   transform="translate(643.2629,361.1678)">vSphere</text>
	<text
   style="-inkscape-font-specification:Metropolis;font-family:Metropolis;font-weight:normal;font-style:normal;font-stretch:normal;font-variant:normal;"
   id="text178"
   font-size="16px"
   font-family="Metropolis-Regular"
   fill="#ffffff"
   transform="translate(632.0629,380.3678)">Replication</text>
</g>
<rect
   height="38.9"
   width="232.8"
   stroke-miterlimit="10"
   stroke="#FFFFFF"
   fill="none"
   y="215.1"
   x="331.6"
   id="rect68" />
<text
   style="-inkscape-font-specification:Metropolis;font-family:Metropolis;font-weight:normal;font-style:normal;font-stretch:normal;font-variant:normal;"
   font-size="16px"
   font-family="Metropolis-Regular"
   fill="#ffffff"
   transform="translate(391.1129,239.018)"
   id="text70">VMware vSAN</text>
<rect
   height="38.9"
   width="232.8"
   stroke-miterlimit="10"
   stroke="#FFFFFF"
   fill="none"
   y="265.5"
   x="331.6"
   id="rect72" />
<text
   style="-inkscape-font-specification:Metropolis;font-family:Metropolis;font-weight:normal;font-style:normal;font-stretch:normal;font-variant:normal;"
   font-size="16px"
   font-family="Metropolis-Regular"
   fill="#ffffff"
   transform="translate(381.7527,289.4178)"
   id="text74">NSX Data Center</text>
<rect
   height="38.9"
   width="232.8"
   stroke-miterlimit="10"
   stroke="#FFFFFF"
   fill="none"
   y="325.1"
   x="331.6"
   id="rect76" />
<text
   style="-inkscape-font-specification:Metropolis;font-family:Metropolis;font-weight:normal;font-style:normal;font-stretch:normal;font-variant:normal;"
   font-size="16px"
   font-family="Metropolis-Regular"
   fill="#ffffff"
   transform="translate(412.002,349.0155)"
   id="text78">Compute</text>
<rect
   height="38.9"
   width="232.8"
   stroke-miterlimit="10"
   stroke="#FFFFFF"
   fill="none"
   y="375.4"
   x="331.6"
   id="rect80" />
<text
   style="-inkscape-font-specification:Metropolis;font-family:Metropolis;font-weight:normal;font-style:normal;font-stretch:normal;font-variant:normal;"
   font-size="16px"
   font-family="Metropolis-Regular"
   fill="#ffffff"
   transform="translate(417.066,399.2994)"
   id="text82">Storage</text>
<rect
   height="38.9"
   width="232.8"
   stroke-miterlimit="10"
   stroke="#FFFFFF"
   fill="none"
   y="425.8"
   x="331.6"
   id="rect84" />
<g
   id="g196">
	<rect
   height="66"
   width="161.5"
   stroke-miterlimit="10"
   stroke="#FFFFFF"
   fill="none"
   y="333.3"
   x="14.6"
   id="rect16" />
	<text
   style="-inkscape-font-specification:Metropolis;font-family:Metropolis;font-weight:normal;font-style:normal;font-stretch:normal;font-variant:normal;"
   id="text192"
   font-size="16px"
   font-family="Metropolis-Regular"
   fill="#ffffff"
   transform="translate(62.6703,361.1676)">vRealize</text>
	<text
   style="-inkscape-font-specification:Metropolis;font-family:Metropolis;font-weight:normal;font-style:normal;font-stretch:normal;font-variant:normal;"
   id="text194"
   font-size="16px"
   font-family="Metropolis-Regular"
   fill="#ffffff"
   transform="translate(49.1703,380.3676)">Automation</text>
</g>
<text
   style="-inkscape-font-specification:Metropolis;font-family:Metropolis;font-weight:normal;font-style:normal;font-stretch:normal;font-variant:normal;"
   font-size="16px"
   font-family="Metropolis-Regular"
   fill="#ffffff"
   transform="translate(414.2571,449.6954)"
   id="text86">Network</text>
<text
   style="-inkscape-font-specification:Metropolis;font-family:Metropolis;font-weight:normal;font-style:normal;font-stretch:normal;font-variant:normal;"
   id="text199"
   font-size="16px"
   font-family="Metropolis-Regular"
   fill="#ffffff"
   transform="translate(13.0209,27.3321)">Service Management</text>
<text
   style="-inkscape-font-specification:Metropolis;font-family:Metropolis;font-weight:normal;font-style:normal;font-stretch:normal;font-variant:normal;"
   id="text201"
   font-size="16px"
   font-family="Metropolis-Regular"
   fill="#ffffff"
   transform="translate(32.2209,46.5321)">and Automation</text>
<g
   id="g208">
	<rect
   height="66"
   width="161.5"
   stroke-miterlimit="10"
   stroke="#FFFFFF"
   fill="none"
   y="203.9"
   x="14.6"
   id="rect36" />
	<text
   style="-inkscape-font-specification:Metropolis;font-family:Metropolis;font-weight:normal;font-style:normal;font-stretch:normal;font-variant:normal;"
   id="text204"
   font-size="16px"
   font-family="Metropolis-Regular"
   fill="#ffffff"
   transform="translate(62.6699,231.8177)">vRealize</text>
	<text
   style="-inkscape-font-specification:Metropolis;font-family:Metropolis;font-weight:normal;font-style:normal;font-stretch:normal;font-variant:normal;"
   id="text206"
   font-size="16px"
   font-family="Metropolis-Regular"
   fill="#ffffff"
   transform="translate(51.8699,251.0177)">Operations</text>
</g>
<g
   id="g122">
	<path
   d="M120.6,80.2L120.6,80.2c0.8,0,1.3-0.5,1.3-1.3s-0.5-1.2-1.2-1.2s-1.3,0.5-1.3,1.3   C119.3,79.7,119.8,80.2,120.6,80.2z"
   fill="#FFFFFF"
   id="path112" />
	<path
   d="M115.6,80.2L115.6,80.2c0.8,0,1.3-0.5,1.3-1.3s-0.5-1.2-1.2-1.2s-1.3,0.5-1.3,1.3   C114.3,79.7,114.8,80.2,115.6,80.2z"
   fill="#FFFFFF"
   id="path114" />
	<path
   d="M110.6,80.2L110.6,80.2c0.8,0,1.3-0.5,1.3-1.3s-0.5-1.2-1.2-1.2s-1.3,0.5-1.3,1.3   C109.3,79.7,109.8,80.2,110.6,80.2z"
   fill="#FFFFFF"
   id="path116" />
	<path
   d="M111.2,128.6H50.5v-55h75v10.9H54.8V87h70.7v25.8c0.6-0.3,1.3-0.4,2-0.4h0.5V71.1H48v60h63.2   V128.6z"
   fill="#FFFFFF"
   id="path118" />
	<path
   d="M142.7,132.9c-0.2,0-0.6,0.2-1.3,0.4c-0.5,0.1-0.9,0.2-1.3,0.3c-0.1,0.2-0.3,0.7-0.6,1.4   c-0.2,0.6-0.5,1.1-0.7,1.3c0.1,0.1,0.3,0.5,0.7,1.2c0.3,0.5,0.5,0.9,0.7,1.1c-0.2,0.4-1.2,1.4-2.9,3.1c-0.8-0.4-1.6-0.9-2.4-1.4   c-0.9,0.5-1.8,0.9-2.6,1c-0.2,0.3-0.3,0.7-0.5,1.4s-0.3,1.2-0.4,1.4h-4.1c-0.1-0.3-0.3-0.7-0.4-1.3s-0.3-1.1-0.4-1.4   c-1.6-0.7-2.5-1.1-2.5-1.2c-0.4,0.1-0.8,0.3-1.3,0.6c-0.6,0.3-0.9,0.6-1.2,0.7c-0.4-0.2-1.3-1.2-3-2.8c0.1-0.3,0.5-1.1,1.3-2.4   c0-0.1-0.2-0.6-0.6-1.3c-0.2-0.5-0.4-1-0.4-1.5c-0.4,0-0.8-0.1-1.4-0.3s-1.1-0.3-1.3-0.4v-4.2c0.2,0,0.6-0.2,1.3-0.4   c0.5-0.1,0.9-0.2,1.3-0.3c0.1-0.2,0.3-0.7,0.6-1.4c0.2-0.6,0.5-1,0.7-1.3c-0.6-1.2-1.1-2-1.4-2.3c0.2-0.4,1.2-1.4,3-3.1   c1.1,0.5,1.9,1,2.4,1.4c1.5-0.7,2.4-1,2.7-1c0-0.2,0.2-0.6,0.4-1.4c0.1-0.6,0.3-1,0.4-1.4h4.1c0.1,0.4,0.4,1.3,0.8,2.7   c0.2,0.1,0.6,0.2,1.3,0.5c0.6,0.2,1,0.4,1.2,0.6c0.4-0.1,0.8-0.3,1.2-0.6c0.6-0.3,1-0.6,1.2-0.7c0.4,0.3,1,0.7,1.6,1.4   c0.7,0.7,1.2,1.2,1.5,1.4c-0.6,1.1-1.1,1.9-1.4,2.4c0.7,2,1,3,1,2.8c0.4,0,0.8,0.1,1.4,0.3c0.6,0.2,1.1,0.3,1.3,0.4V132.9z    M136.8,134.7c0.8-1.6,1.2-3.1,1-4.7c-0.1-1.4-0.6-2.8-1.5-4s-1.9-2.1-3.3-2.7c-1.3-0.6-2.7-0.9-4.2-0.8c-2.1,0.2-3.8,0.9-5.1,2.2   c-1.2,1.2-2,2.7-2.3,4.5c-0.3,1.7-0.1,3.4,0.6,5c0.7,1.7,1.9,3,3.4,3.8c2.1,1.1,4.2,1.3,6.6,0.6   C134.2,137.9,135.8,136.6,136.8,134.7z"
   fill="#FFFFFF"
   id="path120" />
</g>
<text
   style="-inkscape-font-specification:Metropolis;font-family:Metropolis;font-weight:normal;font-style:normal;font-stretch:normal;font-variant:normal;"
   font-size="16px"
   font-family="Metropolis-Regular"
   fill="#ffffff"
   transform="translate(641.5588,34)"
   id="text124">Business</text>
<text
   style="-inkscape-font-specification:Metropolis;font-family:Metropolis;font-weight:normal;font-style:normal;font-stretch:normal;font-variant:normal;"
   font-size="16px"
   font-family="Metropolis-Regular"
   fill="#ffffff"
   transform="translate(635.4588,52)"
   id="text126">Continuity</text>
<text
   style="-inkscape-font-specification:Metropolis;font-family:Metropolis;font-weight:normal;font-style:normal;font-stretch:normal;font-variant:normal;"
   font-size="16px"
   font-family="Metropolis-Regular"
   fill="#ffffff"
   transform="translate(838.7505,34)"
   id="text128">Security</text>
<g
   id="g144">
	
		<text
   style="-inkscape-font-specification:Metropolis;font-family:Metropolis;font-weight:normal;font-style:normal;font-stretch:normal;font-variant:normal;"
   font-size="16px"
   font-family="Metropolis-Regular"
   fill="#ffffff"
   transform="translate(236.4363,27.332)"
   id="text130">Cloud</text>
	
		<text
   style="-inkscape-font-specification:Metropolis;font-family:Metropolis;font-weight:normal;font-style:normal;font-stretch:normal;font-variant:normal;"
   font-size="16px"
   font-family="Metropolis-Regular"
   fill="#ffffff"
   transform="translate(208.3363,45.332)"
   id="text132">Management</text>
	
		<text
   style="-inkscape-font-specification:Metropolis;font-family:Metropolis;font-weight:normal;font-style:normal;font-stretch:normal;font-variant:normal;"
   font-size="16px"
   font-family="Metropolis-Regular"
   fill="#ffffff"
   transform="translate(237.4363,63.332)"
   id="text134">Layer</text>
	<g
   id="g142">
		<g
   id="g138">
			<path
   d="M285.4,90.9c-0.8-8.5-7.2-15.3-15.2-15.5c-0.2,0-0.2,0-0.4,0c-6.5,0-12,4.3-14.4,10.6     c-1.7-0.8-3.4-1.2-5.4-1.3c-0.1,0-0.2,0-0.3,0c-6.4,0-11.7,4.5-13,10.6c-0.8-0.2-1.7-0.4-2.6-0.4c-0.1,0-0.2,0-0.2,0     c-5.7,0-10.4,4.6-10.6,10.4c-0.2,5.8,5.2,11.2,11,11.4c0.2,0,0.6,0,1.2,0c0.8,0,1.8,0,3.1,0v-1.9c-1.3,0-2.4,0-3.1,0     c-0.7,0-1.1,0-1.2,0c-4.9-0.2-9.3-4.7-9.2-9.4c0.2-4.8,4-8.7,8.7-8.7c0.1,0,0.2,0,0.2,0c0.8,0,1.4,0.2,2.1,0.3l2,0.5l0.5-2     c1.1-5.2,5.8-9.1,11.2-9.1c0.1,0,0.2,0,0.3,0c1.7,0.1,3.2,0.4,4.6,1.1l1.8,0.9l0.8-1.9c2.2-5.7,7.1-9.3,12.7-9.3     c0.1,0,0.2,0,0.3,0c6.9,0.2,12.6,6.1,13.4,13.7l0.2,1.6l1.6,0.2c4.8,0.5,8.4,5.3,8.3,11.2c-0.2,5.9-4.3,10.7-9.1,10.7     c-0.1,0-0.2,0-0.2,0c-0.2,0-0.6,0-1.3,0c-0.8,0-2,0-3.4,0v1.9c1.4,0,2.6,0,3.4,0c0.7,0,1.1,0,1.2,0s0.2,0,0.2,0     c5.9,0,10.9-5.6,11-12.5C295.6,97,291.2,91.4,285.4,90.9z"
   fill="#FFFFFF"
   id="path136" />
		</g>
		<path
   d="M277.7,119.1c-0.3,0.1-0.9,0.2-1.7,0.5c-0.7,0.2-1.3,0.4-1.8,0.4c-0.2,0.3-0.5,1-0.8,1.9    c-0.3,0.8-0.6,1.4-1,1.8c0.2,0.2,0.5,0.8,1,1.7c0.4,0.7,0.8,1.2,1,1.6c-0.4,0.5-1.7,2-4.1,4.3c-1.1-0.5-2.3-1.2-3.4-2    c-1.3,0.8-2.5,1.2-3.6,1.4c-0.2,0.4-0.5,1.1-0.7,2c-0.2,1-0.5,1.7-0.6,2h-5.8c-0.2-0.4-0.4-1.1-0.6-1.9c-0.2-0.9-0.4-1.5-0.5-1.9    c-2.3-1-3.5-1.5-3.6-1.6c-0.5,0.2-1.1,0.5-1.7,0.8c-0.8,0.5-1.4,0.8-1.7,0.9c-0.5-0.3-1.9-1.7-4.2-3.9c0.1-0.4,0.7-1.5,1.8-3.4    c-0.1-0.2-0.3-0.8-0.8-1.9c-0.3-0.8-0.5-1.4-0.6-2c-0.5-0.1-1.1-0.2-1.9-0.4c-0.9-0.2-1.5-0.5-1.8-0.5V113    c0.3-0.1,0.9-0.2,1.7-0.5c0.7-0.2,1.3-0.4,1.8-0.4c0.2-0.3,0.5-0.9,0.8-1.9c0.4-0.8,0.7-1.4,0.9-1.8c-0.9-1.7-1.6-2.8-2-3.3    c0.4-0.5,1.7-2,4.2-4.3c1.5,0.8,2.7,1.4,3.4,2c2.1-0.9,3.4-1.4,3.7-1.4c0.1-0.2,0.2-0.9,0.5-2c0.2-0.8,0.4-1.4,0.5-2h5.8    c0.2,0.5,0.6,1.7,1.1,3.8c0.2,0.1,0.8,0.4,1.8,0.8c0.8,0.3,1.4,0.6,1.7,0.9c0.5-0.2,1.1-0.5,1.7-0.8c0.8-0.5,1.4-0.8,1.7-0.9    c0.6,0.4,1.4,1.1,2.2,1.9c1,1,1.7,1.7,2.1,2c-0.8,1.6-1.5,2.7-2,3.4c1,2.9,1.4,4.2,1.4,3.9c0.5,0.1,1.2,0.2,1.9,0.4    c0.9,0.2,1.5,0.5,1.8,0.5v5.8H277.7z M269.5,121.6c1.1-2.2,1.6-4.4,1.4-6.6c-0.2-2-0.9-3.9-2.1-5.6s-2.7-2.9-4.6-3.8    s-3.9-1.3-5.8-1.1c-3,0.2-5.3,1.3-7.2,3.1c-1.7,1.7-2.8,3.7-3.3,6.3c-0.4,2.4-0.2,4.8,0.8,7.1c1,2.4,2.6,4.2,4.8,5.3    c2.9,1.6,6,1.8,9.3,0.8C265.8,126,268.1,124.2,269.5,121.6z"
   fill="#FFFFFF"
   id="path140" />
	</g>
</g>
<text
   style="-inkscape-font-specification:Metropolis;font-family:Metropolis;font-weight:normal;font-style:normal;font-stretch:normal;font-variant:normal;"
   font-size="16px"
   font-family="Metropolis-Regular"
   fill="#ffffff"
   transform="translate(233.1082,188.6544)"
   id="text146">Virtual</text>
<text
   style="-inkscape-font-specification:Metropolis;font-family:Metropolis;font-weight:normal;font-style:normal;font-stretch:normal;font-variant:normal;"
   font-size="16px"
   font-family="Metropolis-Regular"
   fill="#ffffff"
   transform="translate(205.8082,206.6544)"
   id="text148">Infrastructure</text>
<text
   style="-inkscape-font-specification:Metropolis;font-family:Metropolis;font-weight:normal;font-style:normal;font-stretch:normal;font-variant:normal;"
   font-size="16px"
   font-family="Metropolis-Regular"
   fill="#ffffff"
   transform="translate(237.4082,224.6544)"
   id="text150">Layer</text>
<path
   d="M321.2,285.2"
   stroke-miterlimit="10"
   stroke-width="2"
   stroke="#010101"
   fill="#0995D3"
   id="path152" />
<path
   d="M317.6,266.9"
   stroke-miterlimit="10"
   stroke-width="2"
   stroke="#010101"
   fill="#0995D3"
   id="path154" />
<path
   d="M232.6,305.3c-1.5,0-3-0.3-4.4-0.8l-1.8-0.7l6.1-6.1l-0.9-3.2l-3.2-0.9l-6.1,6.1l-0.7-1.8  c-1.8-4.4-0.7-9.4,2.6-12.7c3.2-3.2,7.8-4.3,12.1-2.8l33.3-33.3c-1.4-4.2-0.3-8.9,2.8-12.1c3.3-3.3,8.3-4.4,12.7-2.6l1.8,0.7  l-6.1,6.1l0.9,3.2l3.2,0.9l6.1-6.1l0.7,1.8c1.8,4.4,0.7,9.4-2.6,12.7c-3.2,3.2-7.8,4.3-12.1,2.8l-33.2,33.3  c1.4,4.2,0.3,8.9-2.8,12.1C238.7,304.1,235.6,305.3,232.6,305.3z M231,302.7c2.9,0.5,5.9-0.4,8.1-2.6c2.7-2.7,3.5-6.6,2-10.1  l-0.3-0.8l35.6-35.6l0.8,0.3c3.5,1.4,7.5,0.7,10.1-2c2.2-2.2,3.1-5.2,2.6-8.1l-4.2,4.2l-6-1.6l-1.6-6l4.2-4.2  c-2.9-0.5-5.9,0.4-8.1,2.6c-2.7,2.7-3.5,6.6-2,10.1l0.3,0.8l-35.6,35.6l-0.8-0.3c-3.5-1.4-7.5-0.7-10.1,2c-2.2,2.2-3.1,5.2-2.6,8.1  l4.2-4.2l6,1.6l1.6,6L231,302.7z"
   fill="#FFFFFF"
   id="path156" />
<text
   style="-inkscape-font-specification:Metropolis;font-family:Metropolis;font-weight:normal;font-style:normal;font-stretch:normal;font-variant:normal;"
   font-size="16px"
   font-family="Metropolis-Regular"
   fill="#ffffff"
   transform="translate(227.2527,342.5975)"
   id="text158">Physical</text>
<text
   style="-inkscape-font-specification:Metropolis;font-family:Metropolis;font-weight:normal;font-style:normal;font-stretch:normal;font-variant:normal;"
   font-size="16px"
   font-family="Metropolis-Regular"
   fill="#ffffff"
   transform="translate(237.4527,360.5975)"
   id="text160">Layer</text>
<g
   id="Devices__x2B__Hardware_Expanded_AQ">
	<g
   id="g172">
		<path
   d="M268.9,452.8c-1.4-1-5.2-2.5-6.8-3.2l-1.1-11.8h-2.5l1.3,13.6l0.7,0.3    c1.1,0.4,3.5,1.3,5.2,2.2H241c1.8-0.8,4.2-1.8,5.2-2.2l0.7-0.3l1.8-13.6h-2.5l-1.5,11.8c-1.6,0.6-5.4,2.1-6.8,3.1    c-0.7,0.5-1,1.4-0.8,2.2c0.3,0.8,1,1.4,1.9,1.4h28.9c0.8,0,1.6-0.6,1.9-1.4C269.9,454.2,269.6,453.3,268.9,452.8z"
   fill="#FFFFFF"
   id="path162" />
		<rect
   height="2.5"
   width="56.1"
   fill="#FFFFFF"
   y="422.7"
   x="218.6"
   id="rect164" />
		<path
   d="M211.7,430.5V380c0-1.1,0.9-2,1.9-2h79.3c1.3,0,2.3,1,2.3,2.3v30h2.5v-30    c0-2.7-2.2-4.8-4.8-4.8h-79.3c-2.4,0-4.4,2-4.4,4.5v50.5c0,2.5,2,4.5,4.4,4.5h61.3v-2.5h-61.3    C212.5,432.5,211.7,431.6,211.7,430.5z"
   fill="#FFFFFF"
   id="path166" />
		<path
   d="M302,412.9h-22.2c-1.3,0-2.4,1.1-2.4,2.4v34.5c0,1.1,0.9,2.1,2.1,2.1h22.2    c1.3,0,2.4-1.1,2.4-2.4v-34.4C304.1,413.9,303.2,412.9,302,412.9z M301.6,449.4h-21.7v-2.8h21.7V449.4z M301.6,445.1h-21.7v-29.7    h21.7V445.1z"
   fill="#FFFFFF"
   id="path168" />
		<circle
   r="1"
   cy="448"
   cx="290.6"
   fill="#FFFFFF"
   id="circle170" />
	</g>
</g>
<g
   id="g179">
	<path
   d="M716.3,108.1c-8-7.8-8-7.8-8-7.8   c-7.8,7.8-7.8,7.8-7.8,7.8c1.9,2.1,1.9,2.1,1.9,2.1c4.6-4.6,4.6-4.6,4.6-4.6c-0.7,16.7-14.3,30-31.2,30c-13.3,0-24.6-8.3-29-20   c-3,0-3,0-3,0c4.6,13.3,17.2,22.9,32,22.9c18.2,0,33.3-14.5,34-32.6c4.4,4.4,4.4,4.4,4.4,4.4L716.3,108.1z"
   fill="#FFFFFF"
   clip-rule="evenodd"
   fill-rule="evenodd"
   id="path175" />
	<path
   d="M649.3,98.5c-4.4,4.4-4.4,4.4-4.4,4.4   c0.7-16.5,14.5-29.8,31.2-29.8c13.3,0,24.4,8.2,29,19.9c3,0,3,0,3,0c-4.6-13.3-17.2-22.7-32-22.7c-18.4,0-33.3,14.5-34,32.8   c-4.4-4.6-4.4-4.6-4.4-4.6c-2.1,2.1-2.1,2.1-2.1,2.1c8,7.8,8,7.8,8,7.8c7.8-7.8,7.8-7.8,7.8-7.8L649.3,98.5z"
   fill="#FFFFFF"
   clip-rule="evenodd"
   fill-rule="evenodd"
   id="path177" />
</g>
<g
   id="g191">
	<path
   d="M870.6,103.1"
   fill="#FFFFFF"
   id="path181" />
	<path
   d="M846.9,120.4c-0.7,0-1.2-0.6-1.2-1.2c0-13.8,11.3-25.1,25.1-25.1c0.7,0,1.2,0.6,1.2,1.2   s-0.6,1.2-1.2,1.2c-12.5,0-22.6,10.1-22.6,22.6C848.1,119.8,847.6,120.4,846.9,120.4z"
   fill="#FFFFFF"
   id="path183" />
	<g
   id="g189">
		<path
   d="M888.4,92.6V74.4c0-9.1-7.2-16.6-16-16.6h-3    c-8.8,0-16,7.4-16,16.6v18.2c-9,5.8-15,15.9-15,27.4c0,17.9,14.6,32.5,32.5,32.5s32.5-14.6,32.5-32.5    C903.4,108.5,897.4,98.4,888.4,92.6z M855.9,74.4c0-7.8,6.1-14.1,13.5-14.1h3c7.5,0,13.5,6.3,13.5,14.1v16.8    c-4.5-2.3-9.6-3.7-15-3.7s-10.5,1.3-15,3.7V74.4z M870.9,150c-16.5,0-30-13.5-30-30s13.5-30,30-30s30,13.5,30,30    S887.4,150,870.9,150z"
   fill="#FFFFFF"
   clip-rule="evenodd"
   fill-rule="evenodd"
   id="path185" />
		<path
   d="M870.9,111.5c-2.9,0-5.3,2.4-5.3,5.3    c0,2,1.1,3.7,2.7,4.6v5.5c0,0.8,0.6,1.4,1.4,1.4h2.5c0.8,0,1.4-0.6,1.4-1.4v-5.4c1.6-0.9,2.7-2.6,2.7-4.6    C876.2,113.9,873.8,111.5,870.9,111.5z"
   fill="#FFFFFF"
   clip-rule="evenodd"
   fill-rule="evenodd"
   id="path187" />
	</g>
</g>
</svg>
