<?xml version="1.0" encoding="UTF-8" standalone="no"?>
<svg
   xmlns:dc="http://purl.org/dc/elements/1.1/"
   xmlns:cc="http://creativecommons.org/ns#"
   xmlns:rdf="http://www.w3.org/1999/02/22-rdf-syntax-ns#"
   xmlns:svg="http://www.w3.org/2000/svg"
   xmlns="http://www.w3.org/2000/svg"
   xmlns:sodipodi="http://sodipodi.sourceforge.net/DTD/sodipodi-0.dtd"
   xmlns:inkscape="http://www.inkscape.org/namespaces/inkscape"
   version="1.1"
   id="Layer_1"
   x="0px"
   y="0px"
   viewBox="0 0 131.66628 149.01066"
   enable-background="new 0 0 304.9 136.4"
   xml:space="preserve"
   sodipodi:docname="Server-Virtualization.svg"
   inkscape:version="1.0 (4035a4fb49, 2020-05-01)"
   width="131.66628"
   height="149.01065"><metadata
   id="metadata137"><rdf:RDF><cc:Work
       rdf:about=""><dc:format>image/svg+xml</dc:format><dc:type
         rdf:resource="http://purl.org/dc/dcmitype/StillImage" /><dc:title></dc:title></cc:Work></rdf:RDF></metadata><defs
   id="defs135" /><sodipodi:namedview
   inkscape:document-rotation="0"
   pagecolor="#ffffff"
   bordercolor="#666666"
   borderopacity="1"
   objecttolerance="10"
   gridtolerance="10"
   guidetolerance="10"
   inkscape:pageopacity="0"
   inkscape:pageshadow="2"
   inkscape:window-width="1920"
   inkscape:window-height="1017"
   id="namedview133"
   showgrid="false"
   inkscape:zoom="2.5441002"
   inkscape:cx="81.536398"
   inkscape:cy="88.734047"
   inkscape:window-x="1912"
   inkscape:window-y="-8"
   inkscape:window-maximized="1"
   inkscape:current-layer="Layer_1" />
<rect
   fill="#ffffff"
   width="131.66628"
   height="149.01065"
   id="rect10"
   x="2.4877929e-06"
   y="-0.062997058"
   style="stroke-width:0.999998" />



















<g
   transform="translate(0,3.4070088)"
   id="g989"><rect
     id="rect12"
     height="32.900002"
     width="96.800003"
     fill="#2a90cf"
     y="54.185322"
     x="17.433136" /><text
     y="73.73082"
     x="43.93689"
     style="font-style:normal;font-variant:normal;font-weight:normal;font-stretch:normal;font-family:Metropolis;-inkscape-font-specification:Metropolis"
     id="text14"
     font-size="11.172px"
     font-family="'Metropolis-Regular'"
     fill="#ffffff">VMware</text><g
     transform="translate(-174.96686,9.9853198)"
     id="g36">
	<path
   id="path16"
   d="m 286.7,85.5 v 20.4 H 194.9 V 85.5 h 91.8 m 2.6,-2.5 h -97 v 25.5 h 96.9 z"
   fill="#010101" />
	<path
   id="path18"
   d="m 240.6,92.6 v 0 c 1.6,0 2.7,1.1 3,2.5 0.3,1.6 -0.8,3.3 -2.5,3.6 -0.2,0 -0.3,0 -0.5,0 -1.6,0 -2.7,-1.1 -3,-2.5 -0.3,-1.6 0.8,-3.3 2.5,-3.6 0.1,0 0.3,0 0.5,0 m 0,-2 c -0.3,0 -0.6,0 -0.8,0.1 -2.7,0.5 -4.7,3 -4.2,5.9 0.4,2.4 2.5,4.3 5,4.3 0.3,0 0.6,0 0.8,-0.1 2.7,-0.5 4.7,-3 4.2,-5.9 -0.4,-2.6 -2.5,-4.3 -5,-4.3 z"
   fill="#010101" />
	<g
   id="g26">
		<rect
   id="rect20"
   height="10.2"
   width="2.5"
   fill="#010101"
   y="90.599998"
   x="199.2" />
		<rect
   id="rect22"
   height="10.2"
   width="2.5"
   fill="#010101"
   y="90.599998"
   x="204.39999" />
		<rect
   id="rect24"
   height="10.2"
   width="2.5"
   fill="#010101"
   y="90.599998"
   x="209.5" />
	</g>
	<g
   id="g34">
		<rect
   id="rect28"
   height="10.2"
   width="2.5"
   fill="#010101"
   y="90.599998"
   x="268.10001" />
		<rect
   id="rect30"
   height="10.2"
   width="2.5"
   fill="#010101"
   y="90.599998"
   x="273.20001" />
		<rect
   id="rect32"
   height="10.2"
   width="2.5"
   fill="#010101"
   y="90.599998"
   x="278.20001" />
	</g>
</g><g
     transform="translate(-1.8331605,9.9853198)"
     id="g924"><g
       id="g46"
       transform="translate(-173.2337)">
	<g
   id="g44">
		<path
   fill="#2690cf"
   d="m 202.2,21.1 h -1.9 l -0.3,0.8 h -0.4 l 1.5,-3.4 h 0.4 l 1.5,3.4 h -0.4 z m -0.2,-0.4 -0.8,-1.8 -0.8,1.8 z"
   id="path38" />
		<path
   fill="#2690cf"
   d="m 203.8,18.5 h 1.4 c 0.7,0 1.2,0.4 1.2,1.1 0,0.7 -0.6,1.1 -1.2,1.1 h -1 v 1.2 h -0.4 z m 1.3,1.8 c 0.6,0 0.9,-0.2 0.9,-0.7 0,-0.4 -0.4,-0.7 -0.9,-0.7 h -0.9 v 1.5 z"
   id="path40" />
		<path
   fill="#2690cf"
   d="m 207.2,18.5 h 1.4 c 0.7,0 1.2,0.4 1.2,1.1 0,0.7 -0.6,1.1 -1.2,1.1 h -1 v 1.2 h -0.4 z m 1.3,1.8 c 0.6,0 0.9,-0.2 0.9,-0.7 0,-0.4 -0.4,-0.7 -0.9,-0.7 h -0.9 v 1.5 z"
   id="path42" />
	</g>
</g><g
       id="g54"
       transform="translate(-173.2337)">
	<g
   id="g52">
		<path
   fill="#2690cf"
   d="m 201.3,31.3 c 0,-1 0.8,-1.7 1.7,-1.7 0.9,0 1.7,0.8 1.7,1.7 0,1 -0.8,1.8 -1.7,1.8 -0.9,-0.1 -1.7,-0.9 -1.7,-1.8 z m 3,0 c 0,-0.7 -0.6,-1.4 -1.4,-1.4 -0.8,0 -1.2,0.6 -1.2,1.4 0,0.7 0.6,1.4 1.4,1.4 0.7,0 1.2,-0.7 1.2,-1.4 z"
   id="path48" />
		<path
   fill="#2690cf"
   d="m 205.6,32.5 0.2,-0.3 c 0.3,0.3 0.7,0.5 1.1,0.5 0.5,0 0.8,-0.3 0.8,-0.6 0,-0.4 -0.3,-0.5 -0.9,-0.7 -0.7,-0.1 -1.1,-0.3 -1.1,-0.9 0,-0.6 0.5,-1 1.2,-1 0.5,0 0.9,0.2 1.2,0.5 l -0.2,0.3 c -0.3,-0.2 -0.6,-0.4 -1,-0.4 -0.4,0 -0.7,0.3 -0.7,0.6 0,0.3 0.3,0.5 0.9,0.6 0.7,0.2 1.1,0.4 1.1,1 0,0.6 -0.4,1 -1.2,1 -0.7,-0.1 -1.1,-0.3 -1.4,-0.6 z"
   id="path50" />
	</g>
</g><path
       fill="#2690cf"
       d="m 42.166296,13.6 h -21 c -1.1,0 -1.9,0.8 -1.9,1.9 v 21 c 0,1.1 0.8,1.9 1.9,1.9 h 21 c 1.1,0 1.9,-0.8 1.9,-1.9 v -21 c 0,-1.1 -0.9,-1.9 -1.9,-1.9 z m 0,24.2 h -21 c -0.7,0 -1.2,-0.6 -1.2,-1.2 v -21 c 0,-0.7 0.6,-1.2 1.2,-1.2 h 21 c 0.7,0 1.2,0.6 1.2,1.2 v 10.2 h -22 v 0.7 h 22 v 10.2 c 0.1,0.5 -0.5,1.1 -1.2,1.1 z"
       id="path56" /><g
       id="g66"
       transform="translate(-173.2337)">
	<g
   id="g64">
		<path
   fill="#2690cf"
   d="m 238.2,21.1 h -1.9 l -0.3,0.8 h -0.4 l 1.5,-3.4 h 0.4 l 1.5,3.4 h -0.4 z m -0.1,-0.4 -0.8,-1.8 -0.8,1.8 z"
   id="path58" />
		<path
   fill="#2690cf"
   d="m 239.9,18.5 h 1.4 c 0.7,0 1.2,0.4 1.2,1.1 0,0.7 -0.6,1.1 -1.2,1.1 h -1 v 1.2 h -0.4 z m 1.3,1.8 c 0.6,0 0.9,-0.2 0.9,-0.7 0,-0.4 -0.4,-0.7 -0.9,-0.7 h -0.9 v 1.5 z"
   id="path60" />
		<path
   fill="#2690cf"
   d="m 243.4,18.5 h 1.3 c 0.7,0 1.2,0.4 1.2,1.1 0,0.7 -0.6,1.1 -1.2,1.1 h -1 v 1.2 h -0.4 z m 1.3,1.8 c 0.6,0 0.9,-0.2 0.9,-0.7 0,-0.4 -0.4,-0.7 -0.9,-0.7 h -1 v 1.5 z"
   id="path62" />
	</g>
</g><g
       id="g74"
       transform="translate(-173.2337)">
	<g
   id="g72">
		<path
   fill="#2690cf"
   d="m 237.4,31.3 c 0,-1 0.8,-1.7 1.7,-1.7 0.9,0 1.7,0.8 1.7,1.7 0,1 -0.8,1.8 -1.7,1.8 -0.9,-0.1 -1.7,-0.9 -1.7,-1.8 z m 3,0 c 0,-0.7 -0.6,-1.4 -1.4,-1.4 -0.8,0 -1.3,0.6 -1.3,1.4 0,0.7 0.6,1.4 1.4,1.4 0.8,0 1.3,-0.7 1.3,-1.4 z"
   id="path68" />
		<path
   fill="#2690cf"
   d="m 241.7,32.5 0.2,-0.3 c 0.3,0.3 0.7,0.5 1.1,0.5 0.5,0 0.8,-0.3 0.8,-0.6 0,-0.4 -0.3,-0.5 -0.9,-0.7 -0.7,-0.1 -1.1,-0.3 -1.1,-0.9 0,-0.6 0.5,-1 1.2,-1 0.5,0 0.9,0.2 1.2,0.5 l -0.2,0.3 c -0.3,-0.2 -0.6,-0.4 -1,-0.4 -0.4,0 -0.7,0.3 -0.7,0.6 0,0.3 0.3,0.5 0.9,0.6 0.7,0.2 1.1,0.4 1.1,1 0,0.6 -0.4,1 -1.2,1 -0.7,-0.1 -1.1,-0.3 -1.4,-0.6 z"
   id="path70" />
	</g>
</g><path
       fill="#2690cf"
       d="m 78.266296,13.6 h -21 c -1.1,0 -1.9,0.8 -1.9,1.9 v 21 c 0,1.1 0.8,1.9 1.9,1.9 h 21 c 1.1,0 1.9,-0.8 1.9,-1.9 v -21 c 0,-1.1 -0.8,-1.9 -1.9,-1.9 z m 0,24.2 h -21 c -0.7,0 -1.2,-0.6 -1.2,-1.2 v -21 c 0,-0.7 0.6,-1.2 1.2,-1.2 h 21 c 0.7,0 1.2,0.6 1.2,1.2 v 10.2 h -22 v 0.7 h 22 v 10.2 c 0.1,0.5 -0.5,1.1 -1.2,1.1 z"
       id="path76" /><g
       id="g86"
       transform="translate(-173.2337)">
	<g
   id="g84">
		<path
   fill="#2690cf"
   d="m 274.1,21.1 h -1.9 l -0.3,0.8 h -0.4 l 1.5,-3.4 h 0.4 l 1.5,3.4 h -0.4 z m -0.2,-0.4 -0.8,-1.8 -0.8,1.8 z"
   id="path78" />
		<path
   fill="#2690cf"
   d="m 275.7,18.5 h 1.4 c 0.7,0 1.2,0.4 1.2,1.1 0,0.7 -0.6,1.1 -1.2,1.1 h -1 v 1.2 h -0.4 z m 1.3,1.8 c 0.6,0 0.9,-0.2 0.9,-0.7 0,-0.4 -0.4,-0.7 -0.9,-0.7 h -0.9 v 1.5 z"
   id="path80" />
		<path
   fill="#2690cf"
   d="m 279.2,18.5 h 1.4 c 0.7,0 1.2,0.4 1.2,1.1 0,0.7 -0.6,1.1 -1.2,1.1 h -1 v 1.2 h -0.4 z m 1.3,1.8 c 0.6,0 0.9,-0.2 0.9,-0.7 0,-0.4 -0.4,-0.7 -0.9,-0.7 h -0.9 v 1.5 z"
   id="path82" />
	</g>
</g><g
       id="g94"
       transform="translate(-173.2337)">
	<g
   id="g92">
		<path
   fill="#2690cf"
   d="m 273.2,31.3 c 0,-1 0.8,-1.7 1.7,-1.7 0.9,0 1.7,0.8 1.7,1.7 0,1 -0.8,1.8 -1.7,1.8 -0.9,-0.1 -1.7,-0.9 -1.7,-1.8 z m 3.1,0 c 0,-0.7 -0.6,-1.4 -1.4,-1.4 -0.7,0 -1.3,0.6 -1.3,1.4 0,0.7 0.6,1.4 1.4,1.4 0.7,0 1.3,-0.7 1.3,-1.4 z"
   id="path88" />
		<path
   fill="#2690cf"
   d="m 277.5,32.5 0.2,-0.3 c 0.3,0.3 0.7,0.5 1.1,0.5 0.5,0 0.8,-0.3 0.8,-0.6 0,-0.4 -0.3,-0.5 -0.9,-0.7 -0.7,-0.1 -1.1,-0.3 -1.1,-0.9 0,-0.6 0.5,-1 1.2,-1 0.5,0 0.9,0.2 1.2,0.5 l -0.3,0.2 c -0.3,-0.2 -0.6,-0.4 -1,-0.4 -0.4,0 -0.7,0.3 -0.7,0.6 0,0.3 0.3,0.5 0.9,0.6 0.7,0.2 1.1,0.4 1.1,1 0,0.6 -0.4,1 -1.2,1 -0.5,0 -0.9,-0.2 -1.3,-0.5 z"
   id="path90" />
	</g>
</g><path
       fill="#2690cf"
       d="M 114.1663,13.6 H 93.166296 c -1.1,0 -1.9,0.8 -1.9,1.9 v 21 c 0,1.1 0.8,1.9 1.9,1.9 H 114.1663 c 1.1,0 1.9,-0.8 1.9,-1.9 v -21 c 0,-1.1 -0.9,-1.9 -1.9,-1.9 z m 0,24.2 H 93.166296 c -0.7,0 -1.2,-0.6 -1.2,-1.2 v -21 c 0,-0.7 0.6,-1.2 1.2,-1.2 H 114.1663 c 0.7,0 1.2,0.6 1.2,1.2 V 25.8 H 93.366296 v 0.7 H 115.3663 v 10.2 c 0,0.5 -0.5,1.1 -1.2,1.1 z"
       id="path96" /></g></g><text
   font-family="'Metropolis-Regular'"
   font-size="11.172px"
   id="text104"
   style="font-style:normal;font-variant:normal;font-weight:normal;font-stretch:normal;font-size:10.6667px;font-family:Metropolis;-inkscape-font-specification:'Metropolis, Normal';font-variant-ligatures:normal;font-variant-caps:normal;font-variant-numeric:normal;font-variant-east-asian:normal"
   x="21.20775"
   y="137.90192"><tspan
     sodipodi:role="line"
     id="tspan892"
     x="21.20775"
     y="137.90192">Virtualized Server</tspan></text><text
   transform="translate(12.280465,9.0730591)"
   y="9.2910376"
   x="12.352292"
   id="text2344_2_"
   font-family="'Metropolis-Regular'"
   font-size="14px"
   style="font-style:normal;font-variant:normal;font-weight:normal;font-stretch:normal;font-size:10.6667px;line-height:normal;font-family:Metropolis;-inkscape-font-specification:'Metropolis, Normal';font-variant-ligatures:normal;font-variant-position:normal;font-variant-caps:normal;font-variant-numeric:normal;font-variant-alternates:normal;font-variant-east-asian:normal;font-feature-settings:normal;font-variation-settings:normal;text-indent:0;text-align:start;text-decoration:none;text-decoration-line:none;text-decoration-style:solid;text-decoration-color:#000000;letter-spacing:normal;word-spacing:normal;text-transform:none;writing-mode:lr-tb;direction:ltr;text-orientation:mixed;dominant-baseline:auto;baseline-shift:baseline;text-anchor:start;white-space:normal;shape-padding:0;shape-margin:0;inline-size:0;vector-effect:none;fill:#000000;fill-opacity:1;stroke-width:1;stroke-linecap:butt;stroke-linejoin:miter;stroke-miterlimit:4;stroke-dasharray:none;stroke-dashoffset:0;stroke-opacity:1;stop-color:#000000">Virtual Machines</text></svg>
