<?xml version="1.0" encoding="UTF-8" standalone="no"?>
<svg
   xmlns:dc="http://purl.org/dc/elements/1.1/"
   xmlns:cc="http://creativecommons.org/ns#"
   xmlns:rdf="http://www.w3.org/1999/02/22-rdf-syntax-ns#"
   xmlns:svg="http://www.w3.org/2000/svg"
   xmlns="http://www.w3.org/2000/svg"
   xmlns:sodipodi="http://sodipodi.sourceforge.net/DTD/sodipodi-0.dtd"
   xmlns:inkscape="http://www.inkscape.org/namespaces/inkscape"
   height="269.9808"
   width="239.09979"
   version="1.1"
   id="Layer_1"
   x="0px"
   y="0px"
   viewBox="0 0 239.09979 269.9808"
   enable-background="new 0 0 252.8 287"
   xml:space="preserve"
   sodipodi:docname="VirtualNetworking_VirtualMachines.svg"
   inkscape:version="1.0 (4035a4f, 2020-05-01)"><metadata
   id="metadata8197"><rdf:RDF><cc:Work
       rdf:about=""><dc:format>image/svg+xml</dc:format><dc:type
         rdf:resource="http://purl.org/dc/dcmitype/StillImage" /></cc:Work></rdf:RDF></metadata><defs
   id="defs8195" /><sodipodi:namedview
   inkscape:document-rotation="0"
   pagecolor="#ffffff"
   bordercolor="#666666"
   borderopacity="1"
   objecttolerance="10"
   gridtolerance="10"
   guidetolerance="10"
   inkscape:pageopacity="0"
   inkscape:pageshadow="2"
   inkscape:window-width="1669"
   inkscape:window-height="936"
   id="namedview8193"
   showgrid="false"
   inkscape:zoom="2.5365854"
   inkscape:cx="119.3998"
   inkscape:cy="134.0808"
   inkscape:window-x="0"
   inkscape:window-y="23"
   inkscape:window-maximized="0"
   inkscape:current-layer="Layer_1" />
<rect
   y="-15.726892"
   x="-23.557892"
   fill="#ffffff"
   width="252.8"
   height="287"
   id="rect8051" />
<text
   y="260.2074"
   x="98.644897"
   id="text2344_3_"
   font-family="'Metropolis-Regular'"
   font-size="14px"
   style="font-style:normal;font-variant:normal;font-weight:normal;font-stretch:normal;font-family:Metropolis;-inkscape-font-specification:Metropolis">Virtual Switch</text>
<text
   y="157.5336"
   x="-0.34999999"
   id="text2344_5_"
   font-family="Metropolis-Regular"
   font-size="14px"
   style="font-style:normal;font-variant:normal;font-weight:normal;font-stretch:normal;line-height:0;font-family:Metropolis;-inkscape-font-specification:Metropolis">Virtual Ports</text>
<text
   y="9.9399996"
   x="89.202003"
   id="text2344_2_"
   font-family="'Metropolis-Regular'"
   font-size="14px"
   style="font-style:normal;font-variant:normal;font-weight:normal;font-stretch:normal;font-family:Metropolis;-inkscape-font-specification:Metropolis">Virtual Machines</text>
<text
   y="78.089905"
   x="27.316923"
   style="font-style:normal;font-variant:normal;font-weight:normal;font-stretch:normal;font-size:12px;font-family:Metropolis;-inkscape-font-specification:'Metropolis, Normal';font-variant-ligatures:normal;font-variant-caps:normal;font-variant-numeric:normal;font-variant-east-asian:normal"
   id="text2344_4_"
   enable-background="new    "><tspan
     y="78.089905"
     x="27.316923"
     id="tspan2382"
     sodipodi:role="line">Virtual</tspan></text>
<rect
   x="73.499802"
   y="187.5808"
   fill="#218fcf"
   width="141.8"
   height="48.900002"
   id="rect8061" />
<text
   y="222.8447"
   x="83.287003"
   id="text2344_1_"
   fill="#ffffff"
   font-family="'Metropolis-Regular'"
   font-size="14px"
   style="font-style:normal;font-variant:normal;font-weight:normal;font-stretch:normal;font-family:Metropolis;-inkscape-font-specification:Metropolis">Virtual Port Group</text>
<g
   transform="translate(-7.0002,-9.4192)"
   id="g8086">
	<path
   fill="#3e4044"
   d="m 105.6,206.8 h -18 c -1.2,0 -2.2,-1 -2.2,-2.2 v -15.3 c 0,-1.2 1,-2.2 2.2,-2.2 h 18 c 1.2,0 2.2,1 2.2,2.2 v 15.3 c 0.1,1.3 -1,2.2 -2.2,2.2 z"
   id="path8064" />
	<path
   fill="#ffffff"
   d="m 87.6,187.7 c -0.9,0 -1.6,0.7 -1.6,1.6 v 15.3 c 0,0.9 0.7,1.6 1.6,1.6 h 18 c 0.9,0 1.6,-0.7 1.6,-1.6 v -15.3 c 0,-0.9 -0.7,-1.6 -1.6,-1.6 z"
   id="path8066" />
	<path
   fill="#3e4044"
   d="m 105.6,205.4 h -18 c -0.4,0 -0.8,-0.3 -0.8,-0.8 v -15.3 c 0,-0.4 0.3,-0.8 0.8,-0.8 h 18 c 0.4,0 0.8,0.3 0.8,0.8 v 15.3 c 0,0.5 -0.3,0.8 -0.8,0.8 z m -18,-16.6 c -0.3,0 -0.5,0.2 -0.5,0.5 v 15.3 c 0,0.3 0.2,0.5 0.5,0.5 h 18 c 0.3,0 0.5,-0.2 0.5,-0.5 v -15.3 c 0,-0.3 -0.2,-0.5 -0.5,-0.5 z"
   id="path8068" />
	<path
   fill="#3e4044"
   d="M 104.3,189.9 H 89 c -0.4,0 -0.6,0.3 -0.6,0.6 v 7.7 c 0,0.4 0.3,0.6 0.6,0.6 h 0.6 v 1.9 c 0,0.4 0.3,0.6 0.6,0.6 h 1.9 v 1.9 c 0,0.4 0.3,0.6 0.6,0.6 h 7.7 c 0.4,0 0.6,-0.3 0.6,-0.6 v -1.9 h 1.9 c 0.4,0 0.6,-0.3 0.6,-0.6 v -1.9 h 0.6 c 0.4,0 0.6,-0.3 0.6,-0.6 v -7.7 c 0.3,-0.3 0,-0.6 -0.4,-0.6 z"
   id="path8070" />
	<path
   fill="#3e4044"
   d="M 90.2,202.7 H 89 c -0.4,0 -0.6,0.3 -0.6,0.6 0,0.4 0.3,0.6 0.6,0.6 h 1.3 c 0.4,0 0.6,-0.3 0.6,-0.6 0,-0.3 -0.3,-0.6 -0.7,-0.6 z"
   id="path8072" />
	<path
   fill="#3e4044"
   d="M 104.3,202.7 H 103 c -0.4,0 -0.6,0.3 -0.6,0.6 0,0.4 0.3,0.6 0.6,0.6 h 1.3 c 0.4,0 0.6,-0.3 0.6,-0.6 0.1,-0.3 -0.2,-0.6 -0.6,-0.6 z"
   id="path8074" />
	<path
   fill="#ffffff"
   d="m 91.5,196.3 c 0.4,0 0.6,-0.3 0.6,-0.6 v -2.5 c 0,-0.4 -0.3,-0.6 -0.6,-0.6 -0.4,0 -0.6,0.3 -0.6,0.6 v 2.6 c 0,0.2 0.3,0.5 0.6,0.5 z"
   id="path8076" />
	<path
   fill="#ffffff"
   d="m 94.1,196.3 c 0.4,0 0.6,-0.3 0.6,-0.6 v -2.5 c 0,-0.4 -0.3,-0.6 -0.6,-0.6 -0.4,0 -0.6,0.3 -0.6,0.6 v 2.6 c -0.1,0.2 0.2,0.5 0.6,0.5 z"
   id="path8078" />
	<path
   fill="#ffffff"
   d="m 96.6,196.3 c 0.4,0 0.6,-0.3 0.6,-0.6 v -2.5 c 0,-0.4 -0.3,-0.6 -0.6,-0.6 -0.4,0 -0.6,0.3 -0.6,0.6 v 2.6 c 0,0.2 0.3,0.5 0.6,0.5 z"
   id="path8080" />
	<path
   fill="#ffffff"
   d="m 99.2,196.3 c 0.4,0 0.6,-0.3 0.6,-0.6 v -2.5 c 0,-0.4 -0.3,-0.6 -0.6,-0.6 -0.4,0 -0.6,0.3 -0.6,0.6 v 2.6 c 0,0.2 0.2,0.5 0.6,0.5 z"
   id="path8082" />
	<path
   fill="#ffffff"
   d="m 101.7,196.3 c 0.4,0 0.6,-0.3 0.6,-0.6 v -2.5 c 0,-0.4 -0.3,-0.6 -0.6,-0.6 -0.4,0 -0.6,0.3 -0.6,0.6 v 2.6 c 0,0.2 0.3,0.5 0.6,0.5 z"
   id="path8084" />
</g>
<g
   transform="translate(-7.0002,-9.4192)"
   id="g8110">
	<path
   fill="#3e4044"
   d="m 160.4,206.8 h -18 c -1.2,0 -2.2,-1 -2.2,-2.2 v -15.3 c 0,-1.2 1,-2.2 2.2,-2.2 h 18 c 1.2,0 2.2,1 2.2,2.2 v 15.3 c 0,1.3 -1,2.2 -2.2,2.2 z"
   id="path8088" />
	<path
   fill="#ffffff"
   d="m 142.4,187.7 c -0.9,0 -1.6,0.7 -1.6,1.6 v 15.3 c 0,0.9 0.7,1.6 1.6,1.6 h 18 c 0.9,0 1.6,-0.7 1.6,-1.6 v -15.3 c 0,-0.9 -0.7,-1.6 -1.6,-1.6 z"
   id="path8090" />
	<path
   fill="#3e4044"
   d="m 160.4,205.4 h -18 c -0.4,0 -0.8,-0.3 -0.8,-0.8 v -15.3 c 0,-0.4 0.3,-0.8 0.8,-0.8 h 18 c 0.4,0 0.8,0.3 0.8,0.8 v 15.3 c 0,0.5 -0.4,0.8 -0.8,0.8 z m -18,-16.6 c -0.3,0 -0.5,0.2 -0.5,0.5 v 15.3 c 0,0.3 0.2,0.5 0.5,0.5 h 18 c 0.3,0 0.5,-0.2 0.5,-0.5 v -15.3 c 0,-0.3 -0.2,-0.5 -0.5,-0.5 z"
   id="path8092" />
	<path
   fill="#3e4044"
   d="m 159.1,189.9 h -15.3 c -0.4,0 -0.6,0.3 -0.6,0.6 v 7.7 c 0,0.4 0.3,0.6 0.6,0.6 h 0.6 v 1.9 c 0,0.4 0.3,0.6 0.6,0.6 h 1.9 v 1.9 c 0,0.4 0.3,0.6 0.6,0.6 h 7.7 c 0.4,0 0.6,-0.3 0.6,-0.6 v -1.9 h 1.9 c 0.4,0 0.6,-0.3 0.6,-0.6 v -1.9 h 0.6 c 0.4,0 0.6,-0.3 0.6,-0.6 v -7.7 c 0.2,-0.3 -0.1,-0.6 -0.4,-0.6 z"
   id="path8094" />
	<path
   fill="#3e4044"
   d="m 145,202.7 h -1.3 c -0.4,0 -0.6,0.3 -0.6,0.6 0,0.4 0.3,0.6 0.6,0.6 h 1.3 c 0.4,0 0.6,-0.3 0.6,-0.6 0,-0.3 -0.2,-0.6 -0.6,-0.6 z"
   id="path8096" />
	<path
   fill="#3e4044"
   d="m 159.1,202.7 h -1.3 c -0.4,0 -0.6,0.3 -0.6,0.6 0,0.4 0.3,0.6 0.6,0.6 h 1.3 c 0.4,0 0.6,-0.3 0.6,-0.6 0,-0.3 -0.3,-0.6 -0.6,-0.6 z"
   id="path8098" />
	<path
   fill="#ffffff"
   d="m 146.3,196.3 c 0.4,0 0.6,-0.3 0.6,-0.6 v -2.5 c 0,-0.4 -0.3,-0.6 -0.6,-0.6 -0.3,0 -0.6,0.3 -0.6,0.6 v 2.6 c -0.1,0.2 0.2,0.5 0.6,0.5 z"
   id="path8100" />
	<path
   fill="#ffffff"
   d="m 148.8,196.3 c 0.4,0 0.6,-0.3 0.6,-0.6 v -2.5 c 0,-0.4 -0.3,-0.6 -0.6,-0.6 -0.4,0 -0.6,0.3 -0.6,0.6 v 2.6 c 0,0.2 0.3,0.5 0.6,0.5 z"
   id="path8102" />
	<path
   fill="#ffffff"
   d="m 151.4,196.3 c 0.4,0 0.6,-0.3 0.6,-0.6 v -2.5 c 0,-0.4 -0.3,-0.6 -0.6,-0.6 -0.4,0 -0.6,0.3 -0.6,0.6 v 2.6 c -0.1,0.2 0.2,0.5 0.6,0.5 z"
   id="path8104" />
	<path
   fill="#ffffff"
   d="m 154,196.3 c 0.4,0 0.6,-0.3 0.6,-0.6 v -2.5 c 0,-0.4 -0.3,-0.6 -0.6,-0.6 -0.4,0 -0.6,0.3 -0.6,0.6 v 2.6 c -0.1,0.2 0.2,0.5 0.6,0.5 z"
   id="path8106" />
	<path
   fill="#ffffff"
   d="m 156.5,196.3 c 0.4,0 0.6,-0.3 0.6,-0.6 v -2.5 c 0,-0.4 -0.3,-0.6 -0.6,-0.6 -0.4,0 -0.6,0.3 -0.6,0.6 v 2.6 c 0,0.2 0.3,0.5 0.6,0.5 z"
   id="path8108" />
</g>
<g
   transform="translate(-7.0002,-9.4192)"
   id="g8134">
	<path
   fill="#3e4044"
   d="m 215.6,206.8 h -18 c -1.2,0 -2.2,-1 -2.2,-2.2 v -15.3 c 0,-1.2 1,-2.2 2.2,-2.2 h 18 c 1.2,0 2.2,1 2.2,2.2 v 15.3 c 0,1.3 -1,2.2 -2.2,2.2 z"
   id="path8112" />
	<path
   fill="#ffffff"
   d="m 197.6,187.7 c -0.9,0 -1.6,0.7 -1.6,1.6 v 15.3 c 0,0.9 0.7,1.6 1.6,1.6 h 18 c 0.9,0 1.6,-0.7 1.6,-1.6 v -15.3 c 0,-0.9 -0.7,-1.6 -1.6,-1.6 z"
   id="path8114" />
	<path
   fill="#3e4044"
   d="m 215.6,205.4 h -18 c -0.4,0 -0.8,-0.3 -0.8,-0.8 v -15.3 c 0,-0.4 0.3,-0.8 0.8,-0.8 h 18 c 0.4,0 0.8,0.3 0.8,0.8 v 15.3 c 0,0.5 -0.4,0.8 -0.8,0.8 z m -18,-16.6 c -0.3,0 -0.5,0.2 -0.5,0.5 v 15.3 c 0,0.3 0.2,0.5 0.5,0.5 h 18 c 0.3,0 0.5,-0.2 0.5,-0.5 v -15.3 c 0,-0.3 -0.2,-0.5 -0.5,-0.5 z"
   id="path8116" />
	<path
   fill="#3e4044"
   d="M 214.3,189.9 H 199 c -0.4,0 -0.6,0.3 -0.6,0.6 v 7.7 c 0,0.4 0.3,0.6 0.6,0.6 h 0.6 v 1.9 c 0,0.4 0.3,0.6 0.6,0.6 h 1.9 v 1.9 c 0,0.4 0.3,0.6 0.6,0.6 h 7.7 c 0.4,0 0.6,-0.3 0.6,-0.6 v -1.9 h 1.9 c 0.4,0 0.6,-0.3 0.6,-0.6 v -1.9 h 0.6 c 0.4,0 0.6,-0.3 0.6,-0.6 v -7.7 c 0.2,-0.3 -0.1,-0.6 -0.4,-0.6 z"
   id="path8118" />
	<path
   fill="#3e4044"
   d="m 200.2,202.7 h -1.3 c -0.4,0 -0.6,0.3 -0.6,0.6 0,0.4 0.3,0.6 0.6,0.6 h 1.3 c 0.4,0 0.6,-0.3 0.6,-0.6 0.1,-0.3 -0.2,-0.6 -0.6,-0.6 z"
   id="path8120" />
	<path
   fill="#3e4044"
   d="M 214.3,202.7 H 213 c -0.4,0 -0.6,0.3 -0.6,0.6 0,0.4 0.3,0.6 0.6,0.6 h 1.3 c 0.4,0 0.6,-0.3 0.6,-0.6 0,-0.3 -0.3,-0.6 -0.6,-0.6 z"
   id="path8122" />
	<path
   fill="#ffffff"
   d="m 201.5,196.3 c 0.4,0 0.6,-0.3 0.6,-0.6 v -2.5 c 0,-0.4 -0.3,-0.6 -0.6,-0.6 -0.4,0 -0.6,0.3 -0.6,0.6 v 2.6 c 0,0.2 0.2,0.5 0.6,0.5 z"
   id="path8124" />
	<path
   fill="#ffffff"
   d="m 204,196.3 c 0.4,0 0.6,-0.3 0.6,-0.6 v -2.5 c 0,-0.4 -0.3,-0.6 -0.6,-0.6 -0.3,0 -0.6,0.3 -0.6,0.6 v 2.6 c 0,0.2 0.3,0.5 0.6,0.5 z"
   id="path8126" />
	<path
   fill="#ffffff"
   d="m 206.6,196.3 c 0.4,0 0.6,-0.3 0.6,-0.6 v -2.5 c 0,-0.4 -0.3,-0.6 -0.6,-0.6 -0.4,0 -0.6,0.3 -0.6,0.6 v 2.6 c 0,0.2 0.3,0.5 0.6,0.5 z"
   id="path8128" />
	<path
   fill="#ffffff"
   d="m 209.2,196.3 c 0.4,0 0.6,-0.3 0.6,-0.6 v -2.5 c 0,-0.4 -0.3,-0.6 -0.6,-0.6 -0.4,0 -0.6,0.3 -0.6,0.6 v 2.6 c -0.1,0.2 0.2,0.5 0.6,0.5 z"
   id="path8130" />
	<path
   fill="#ffffff"
   d="m 211.7,196.3 c 0.4,0 0.6,-0.3 0.6,-0.6 v -2.5 c 0,-0.4 -0.3,-0.6 -0.6,-0.6 -0.3,0 -0.6,0.3 -0.6,0.6 v 2.6 c 0,0.2 0.3,0.5 0.6,0.5 z"
   id="path8132" />
</g>
<g
   transform="translate(-7.0002,-9.4192)"
   id="Devices__x2B__Hardware_Expanded_AQ">
	<g
   id="g8146">
		<path
   fill="#3e4044"
   d="m 97.4,82.7 v 7.8 h 7.8 v -7.8 z m 7.1,7.1 H 98 v -6.4 h 6.4 v 6.4 z"
   id="path8136" />
		<path
   fill="#3e4044"
   d="m 94.3,86.9 h 2.4 v -0.7 h -2.4 c -0.2,-1.1 -1.1,-2 -2.3,-2 -1.3,0 -2.4,1.1 -2.4,2.4 0,1.3 1.1,2.4 2.4,2.4 1.2,-0.1 2.2,-1 2.3,-2.1 z m -4,-0.3 c 0,-0.9 0.8,-1.7 1.7,-1.7 0.9,0 1.7,0.8 1.7,1.7 0,0.9 -0.8,1.7 -1.7,1.7 -0.9,0 -1.7,-0.8 -1.7,-1.7 z"
   id="path8138" />
		<polygon
   fill="#3e4044"
   points="108.6,80.4 108.6,92.3 88.1,92.3 88.1,92.9 109.2,92.9 109.2,79.7 88.1,79.7 88.1,80.4 "
   id="polygon8140" />
		<path
   fill="#3e4044"
   d="m 84,95.6 h 3.3 V 77.1 H 84 Z m 0.7,-17.8 h 2 V 95 h -2 z"
   id="path8142" />
		<polygon
   fill="#3e4044"
   points="104.2,93.6 103.6,93.6 103.6,95.3 102.2,95.3 102.2,93.6 101.5,93.6 101.5,95.3 100.1,95.3 100.1,93.6 99.4,93.6 99.4,95.3 98,95.3 98,93.6 97.4,93.6 97.4,95.3 95.8,95.3 95.8,93.6 95.1,93.6 95.1,96 106.5,96 106.5,93.6 105.9,93.6 105.9,95.3 104.2,95.3 "
   id="polygon8144" />
	</g>
</g>
<g
   transform="translate(-7.0002,-9.4192)"
   id="Devices__x2B__Hardware_Expanded_AQ_1_">
	<g
   id="g8159">
		<path
   fill="#3e4044"
   d="m 152.1,82.7 v 7.8 h 7.8 v -7.8 z m 7.1,7.1 h -6.4 v -6.4 h 6.4 z"
   id="path8149" />
		<path
   fill="#3e4044"
   d="m 149.1,86.9 h 2.4 v -0.7 h -2.4 c -0.2,-1.1 -1.1,-2 -2.3,-2 -1.3,0 -2.4,1.1 -2.4,2.4 0,1.3 1.1,2.4 2.4,2.4 1.2,-0.1 2.2,-1 2.3,-2.1 z m -4,-0.3 c 0,-0.9 0.8,-1.7 1.7,-1.7 0.9,0 1.7,0.8 1.7,1.7 0,0.9 -0.8,1.7 -1.7,1.7 -0.9,0 -1.7,-0.8 -1.7,-1.7 z"
   id="path8151" />
		<polygon
   fill="#3e4044"
   points="163.3,80.4 163.3,92.3 142.9,92.3 142.9,92.9 164,92.9 164,79.7 142.9,79.7 142.9,80.4 "
   id="polygon8153" />
		<path
   fill="#3e4044"
   d="m 138.8,95.6 h 3.3 V 77.1 h -3.3 z m 0.7,-17.8 h 2 V 95 h -2 z"
   id="path8155" />
		<polygon
   fill="#3e4044"
   points="159,93.6 158.3,93.6 158.3,95.3 156.9,95.3 156.9,93.6 156.3,93.6 156.3,95.3 154.9,95.3 154.9,93.6 154.2,93.6 154.2,95.3 152.8,95.3 152.8,93.6 152.1,93.6 152.1,95.3 150.5,95.3 150.5,93.6 149.9,93.6 149.9,96 161.3,96 161.3,93.6 160.6,93.6 160.6,95.3 159,95.3 "
   id="polygon8157" />
	</g>
</g>
<g
   transform="translate(-7.0002,-9.4192)"
   id="Devices__x2B__Hardware_Expanded_AQ_2_">
	<g
   id="g8172">
		<path
   fill="#3e4044"
   d="m 207.3,82.7 v 7.8 h 7.8 v -7.8 z m 7.1,7.1 H 208 v -6.4 h 6.4 z"
   id="path8162" />
		<path
   fill="#3e4044"
   d="m 204.3,86.9 h 2.4 v -0.7 h -2.4 c -0.2,-1.1 -1.1,-2 -2.3,-2 -1.3,0 -2.4,1.1 -2.4,2.4 0,1.3 1.1,2.4 2.4,2.4 1.2,-0.1 2.2,-1 2.3,-2.1 z m -4,-0.3 c 0,-0.9 0.8,-1.7 1.7,-1.7 0.9,0 1.7,0.8 1.7,1.7 0,0.9 -0.8,1.7 -1.7,1.7 -0.9,0 -1.7,-0.8 -1.7,-1.7 z"
   id="path8164" />
		<polygon
   fill="#3e4044"
   points="218.5,80.4 218.5,92.3 198.1,92.3 198.1,92.9 219.2,92.9 219.2,79.7 198.1,79.7 198.1,80.4 "
   id="polygon8166" />
		<path
   fill="#3e4044"
   d="m 194,95.6 h 3.3 V 77.1 H 194 Z m 0.7,-17.8 h 2 V 95 h -2 z"
   id="path8168" />
		<polygon
   fill="#3e4044"
   points="214.2,93.6 213.5,93.6 213.5,95.3 212.1,95.3 212.1,93.6 211.5,93.6 211.5,95.3 210.1,95.3 210.1,93.6 209.4,93.6 209.4,95.3 208,95.3 208,93.6 207.3,93.6 207.3,95.3 205.8,95.3 205.8,93.6 205.1,93.6 205.1,96 216.5,96 216.5,93.6 215.8,93.6 215.8,95.3 214.2,95.3 "
   id="polygon8170" />
	</g>
</g>
<rect
   x="69.0998"
   y="22.880798"
   fill="none"
   stroke="#006ea4"
   stroke-width="2"
   stroke-miterlimit="10"
   width="41"
   height="41"
   id="rect8175" />
<text
   y="46.7491"
   x="79.882896"
   id="text102_1_"
   fill="#006ea4"
   font-family="'Metropolis-Regular'"
   font-size="12px"
   style="font-style:normal;font-variant:normal;font-weight:normal;font-stretch:normal;font-family:Metropolis;-inkscape-font-specification:Metropolis">VM</text>
<rect
   x="123.8998"
   y="22.880798"
   fill="none"
   stroke="#006ea4"
   stroke-width="2"
   stroke-miterlimit="10"
   width="41"
   height="41"
   id="rect8178" />
<text
   y="46.7491"
   x="134.64661"
   id="text102_2_"
   fill="#006ea4"
   font-family="'Metropolis-Regular'"
   font-size="12px"
   style="font-style:normal;font-variant:normal;font-weight:normal;font-stretch:normal;font-family:Metropolis;-inkscape-font-specification:Metropolis">VM</text>
<rect
   x="179.09981"
   y="22.880798"
   fill="none"
   stroke="#006ea4"
   stroke-width="2"
   stroke-miterlimit="10"
   width="41"
   height="41"
   id="rect8181" />
<text
   y="46.7491"
   x="189.8625"
   id="text102_3_"
   fill="#006ea4"
   font-family="'Metropolis-Regular'"
   font-size="12px"
   style="font-style:normal;font-variant:normal;font-weight:normal;font-stretch:normal;font-family:Metropolis;-inkscape-font-specification:Metropolis">VM</text>
<rect
   x="50.699802"
   y="166.28079"
   fill="none"
   stroke="#19bfd3"
   stroke-width="2"
   stroke-miterlimit="10"
   width="187.39999"
   height="102.7"
   id="rect8184" />
<line
   fill="none"
   stroke="#3e4044"
   stroke-width="2"
   stroke-miterlimit="10"
   x1="89.699799"
   y1="90.980804"
   x2="89.699799"
   y2="175.3808"
   id="line8186" />
<line
   fill="none"
   stroke="#3e4044"
   stroke-width="2"
   stroke-miterlimit="10"
   x1="144.3998"
   y1="90.980804"
   x2="144.3998"
   y2="175.3808"
   id="line8188" />
<line
   fill="none"
   stroke="#3e4044"
   stroke-width="2"
   stroke-miterlimit="10"
   x1="199.59981"
   y1="90.980804"
   x2="199.59981"
   y2="175.3808"
   id="line8190" />
<text
   y="91.716805"
   x="20.624861"
   enable-background="new    "
   id="text2344_4_-7"
   style="font-style:normal;font-variant:normal;font-weight:normal;font-stretch:normal;font-size:12px;font-family:Metropolis;-inkscape-font-specification:'Metropolis, Normal';font-variant-ligatures:normal;font-variant-caps:normal;font-variant-numeric:normal;font-variant-east-asian:normal"><tspan
     y="91.716805"
     x="20.624861"
     id="tspan2402"
     sodipodi:role="line">Network</tspan></text><text
   style="font-style:normal;font-variant:normal;font-weight:normal;font-stretch:normal;font-size:12px;font-family:Metropolis;-inkscape-font-specification:'Metropolis, Normal';font-variant-ligatures:normal;font-variant-caps:normal;font-variant-numeric:normal;font-variant-east-asian:normal"
   id="text2344_4_-7-7"
   enable-background="new    "
   x="19.649481"
   y="106.48595"><tspan
     y="106.48595"
     x="19.649481"
     id="tspan2422"
     sodipodi:role="line">Adapters</tspan></text></svg>
