<?xml version="1.0" encoding="UTF-8" standalone="no"?>
<svg
   xmlns:dc="http://purl.org/dc/elements/1.1/"
   xmlns:cc="http://creativecommons.org/ns#"
   xmlns:rdf="http://www.w3.org/1999/02/22-rdf-syntax-ns#"
   xmlns:svg="http://www.w3.org/2000/svg"
   xmlns="http://www.w3.org/2000/svg"
   xmlns:sodipodi="http://sodipodi.sourceforge.net/DTD/sodipodi-0.dtd"
   xmlns:inkscape="http://www.inkscape.org/namespaces/inkscape"
   inkscape:version="1.0 (4035a4f, 2020-05-01)"
   sodipodi:docname="vmbeans.com.svg"
   xml:space="preserve"
   enable-background="new 0 0 987.8 393.8"
   viewBox="0 0 987.8 393.8"
   y="0px"
   x="0px"
   id="Layer_1"
   version="1.1"><metadata
   id="metadata180"><rdf:RDF><cc:Work
       rdf:about=""><dc:format>image/svg+xml</dc:format><dc:type
         rdf:resource="http://purl.org/dc/dcmitype/StillImage" /></cc:Work></rdf:RDF></metadata><defs
   id="defs178" />
<rect
   height="393.8"
   width="987.8"
   fill="#FFFFFF"
   id="rect1060" />
<sodipodi:namedview
   showgrid="false"
   pagecolor="#ffffff"
   objecttolerance="10"
   inkscape:zoom="1.52"
   inkscape:window-y="203"
   inkscape:window-x="0"
   inkscape:window-width="1251"
   inkscape:window-maximized="0"
   inkscape:window-height="855"
   inkscape:pageshadow="2"
   inkscape:pageopacity="0"
   inkscape:document-rotation="0"
   inkscape:cy="214.64999"
   inkscape:cx="268.10001"
   inkscape:current-layer="Layer_1"
   id="namedview915"
   guidetolerance="10"
   gridtolerance="10"
   borderopacity="1"
   bordercolor="#666666">
	</sodipodi:namedview>
<g
   id="People_Expanded_AQ">
	<g
   id="g667">
		<path
   d="M46.7,39.7c6.6,0,12.7,2.8,17.3,7.8c0.3,0.4,0.5,0.8,0.5,1.3v8c0,1.1-0.8,1.9-1.8,1.9h-32    c-1,0-1.8-0.9-1.8-1.9v-8c0-0.5,0.2-1,0.5-1.3s0.6-0.6,0.9-1C34.8,42.2,40.6,39.7,46.7,39.7 M46.7,38.6c-6.1,0-12.3,2.4-17.2,7.2    c-0.3,0.3-0.6,0.7-1,1c-0.5,0.6-0.8,1.3-0.8,2.1v8c0,1.7,1.3,3,2.9,3h32c1.6,0,2.9-1.4,2.9-3v-8c0-0.8-0.3-1.5-0.8-2.1    C59.9,41.3,53.3,38.6,46.7,38.6z"
   fill="#79459B"
   id="path663" />
		<path
   d="M46.7,17.3c5,0,9,4.1,9,9s-4.1,9-9,9s-9-4.1-9-9S41.7,17.3,46.7,17.3 M46.7,16.1    c-5.6,0-10.2,4.6-10.2,10.2s4.6,10.2,10.2,10.2S56.8,32,56.8,26.3S52.3,16.1,46.7,16.1z"
   fill="#79459B"
   id="path665" />
	</g>
</g>
<g
   transform="translate(0,-12)"
   id="People_Expanded_AQ_1_">
	<g
   id="g674">
		<path
   d="M46.7,198.6c6.6,0,12.7,2.8,17.3,7.8c0.3,0.4,0.5,0.8,0.5,1.3v8c0,1.1-0.8,1.9-1.8,1.9h-32    c-1,0-1.8-0.9-1.8-1.9v-8c0-0.5,0.2-1,0.5-1.3s0.6-0.6,0.9-1C34.8,201.1,40.6,198.6,46.7,198.6 M46.7,197.5    c-6.1,0-12.3,2.4-17.2,7.2c-0.3,0.3-0.6,0.7-1,1c-0.5,0.6-0.8,1.3-0.8,2.1v8c0,1.7,1.3,3,2.9,3h32c1.6,0,2.9-1.4,2.9-3v-8    c0-0.8-0.3-1.5-0.8-2.1C59.9,200.3,53.3,197.5,46.7,197.5z"
   fill="#79459B"
   id="path670" />
		<path
   d="M46.7,176.2c5,0,9,4.1,9,9s-4.1,9-9,9s-9-4.1-9-9S41.7,176.2,46.7,176.2 M46.7,175.1    c-5.6,0-10.2,4.6-10.2,10.2c0,5.6,4.6,10.2,10.2,10.2s10.2-4.6,10.2-10.2C56.8,179.6,52.3,175.1,46.7,175.1z"
   fill="#79459B"
   id="path672" />
	</g>
</g>
<g
   id="People_Expanded_AQ_2_">
	<g
   id="g681">
		<path
   d="M46.7,357.6c6.6,0,12.7,2.8,17.3,7.8c0.3,0.4,0.5,0.8,0.5,1.3v8c0,1.1-0.8,1.9-1.8,1.9h-32    c-1,0-1.8-0.9-1.8-1.9v-8c0-0.5,0.2-1,0.5-1.3s0.6-0.6,0.9-1C34.8,360,40.6,357.6,46.7,357.6 M46.7,356.4    c-6.1,0-12.3,2.4-17.2,7.2c-0.3,0.3-0.6,0.7-1,1c-0.5,0.6-0.8,1.3-0.8,2.1v8c0,1.7,1.3,3,2.9,3h32c1.6,0,2.9-1.4,2.9-3v-8    c0-0.8-0.3-1.5-0.8-2.1C59.9,359.2,53.3,356.4,46.7,356.4z"
   fill="#79459B"
   id="path677" />
		<path
   d="M46.7,335.2c5,0,9,4.1,9,9c0,5-4.1,9-9,9s-9-4.1-9-9C37.6,339.2,41.7,335.2,46.7,335.2     M46.7,334c-5.6,0-10.2,4.6-10.2,10.2s4.6,10.2,10.2,10.2s10.2-4.6,10.2-10.2C56.8,338.6,52.3,334,46.7,334z"
   fill="#79459B"
   id="path679" />
	</g>
</g>
<rect
   height="44.8"
   width="106.6"
   fill="#1E4488"
   y="155.3"
   x="189.6"
   id="rect684" />
<text
   style="-inkscape-font-specification:Metropolis;font-family:Metropolis;font-weight:normal;font-style:normal;font-stretch:normal;font-variant:normal;"
   font-size="14px"
   font-family="'Metropolis-Regular'"
   fill="#FFFFFF"
   transform="matrix(1 0 0 1 196.3142 181.7776)"
   id="text6_7_">vmbeans.com</text>
<g
   transform="translate(-3.9473684,17.842106)"
   id="Clouds__x2B__Infrastructure_Expanded_AQ">
	<path
   d="M281.3,72.3c0.3,0,0.8,0,1.1,0c25.4,0.6,46.4,22.4,49.1,50.5l0.6,5.8l5.8,0.6   c17.5,1.7,30.9,19.6,30.4,41c-0.6,21.8-15.6,39.3-33.5,39.3c-0.3,0-0.6,0-0.8,0c-0.6,0-2.2,0-4.7,0c-12.8,0-50.2,0-86.8,0.3   c-36.6,0-74.5,0.3-87.3,0.3c-2.5,0-3.9,0-4.4,0c-17.8-0.6-34.4-17.2-33.8-34.6c0.3-17.2,14.8-31.2,31.9-31.2c0.3,0,0.6,0,0.8,0   c2.8,0,5.2,0.6,7.9,1.1l7.3,1.9l1.7-7.3c4.1-19.3,21.5-33.5,41-33.5c0.3,0,0.6,0,1.1,0c6.1,0.3,11.7,1.4,17,3.9l6.8,3.3l2.8-7   C242.8,85.7,260.9,72.3,281.3,72.3 M281.3,65.4c-23.7,0-44.2,15.9-53,38.8c-6.1-2.8-12.6-4.4-19.9-4.7c-0.3,0-0.8,0-1.1,0   c-23.5,0-42.9,16.4-47.7,39.1c-3-0.8-6.5-1.4-9.5-1.4c-0.3,0-0.6,0-0.8,0c-21,0-38.2,17-38.8,38.2c-0.6,21.5,19.3,41.3,40.4,41.8   c0.6,0,2.2,0,4.4,0c25.9,0,148.5-0.6,174.1-0.6c2.5,0,3.9,0,4.4,0c0.3,0,0.6,0,0.8,0c21.8,0,39.9-20.7,40.4-46.1   c0.6-25.1-15.6-46.1-36.8-48c-2.8-31.2-26.5-56-55.7-57C282.1,65.4,281.6,65.4,281.3,65.4L281.3,65.4z"
   fill="#19BFD3"
   id="path688" />
</g>
<rect
   height="218.1"
   width="542.1"
   stroke-miterlimit="10"
   stroke="#000000"
   fill="none"
   y="76.1"
   x="417.5"
   id="rect691" />
<rect
   height="40.7"
   width="40.7"
   fill="#218FCF"
   y="90.7"
   x="422.3"
   id="rect693" />
<text
   style="-inkscape-font-specification:Metropolis;font-family:Metropolis;font-weight:normal;font-style:normal;font-stretch:normal;font-variant:normal;"
   font-size="14px"
   font-family="'Metropolis-Regular'"
   fill="#FFFFFF"
   transform="matrix(1 0 0 1 426.7963 107.9976)"
   id="text170">Web</text>
<rect
   height="40.7"
   width="40.7"
   fill="#1E4488"
   y="90.7"
   x="477.2"
   id="rect700" />
<rect
   height="40.7"
   width="40.7"
   fill="#19BFD3"
   y="90.7"
   x="533.3"
   id="rect702" />
<rect
   height="29.7"
   width="151.6"
   fill="#1A428A"
   y="145.6"
   x="422.3"
   id="rect704" />
<text
   style="-inkscape-font-specification:Metropolis;font-family:Metropolis;font-weight:normal;font-style:normal;font-stretch:normal;font-variant:normal;"
   font-size="14px"
   font-family="'Metropolis-Regular'"
   fill="#FFFFFF"
   transform="matrix(0.9851 0 0 1 443.6484 164.4888)"
   id="text6_5_">Virtual Network 1</text>
<text
   style="-inkscape-font-specification:Metropolis;font-family:Metropolis;font-weight:normal;font-style:normal;font-stretch:normal;font-variant:normal;"
   font-size="14px"
   font-family="'Metropolis-Regular'"
   transform="matrix(1 0 0 1 655.8321 315.1927)"
   id="text6_10_">Data Center</text>
<text
   style="-inkscape-font-specification:Metropolis;font-family:Metropolis;font-weight:normal;font-style:normal;font-stretch:normal;font-variant:normal;"
   font-size="14px"
   font-family="'Metropolis-Regular'"
   fill="#FFFFFF"
   transform="matrix(1 0 0 1 482.1802 107.9979)"
   id="text177">Web</text>
<text
   style="-inkscape-font-specification:Metropolis;font-family:Metropolis;font-weight:normal;font-style:normal;font-stretch:normal;font-variant:normal;"
   font-size="14px"
   font-family="'Metropolis-Regular'"
   fill="#FFFFFF"
   transform="matrix(1 0 0 1 537.5497 107.9976)"
   id="text179">Web</text>
<g
   id="g726">
	<g
   id="g724">
		<line
   y2="143.9"
   x2="442.6"
   y1="131.4"
   x1="442.6"
   stroke-miterlimit="10"
   stroke="#000000"
   fill="none"
   id="line718" />
		<g
   id="g722">
			<path
   d="M440.8,143.8c0,1,0.8,1.9,1.9,1.9s1.9-0.8,1.9-1.9c0-1-0.8-1.9-1.9-1.9S440.8,142.7,440.8,143.8z"
   id="path720" />
		</g>
	</g>
</g>
<g
   id="g736">
	<g
   id="g734">
		<line
   y2="143.9"
   x2="497.5"
   y1="131.4"
   x1="497.5"
   stroke-miterlimit="10"
   stroke="#000000"
   fill="none"
   id="line728" />
		<g
   id="g732">
			<path
   d="M495.6,143.8c0,1,0.8,1.9,1.9,1.9s1.9-0.8,1.9-1.9c0-1-0.8-1.9-1.9-1.9S495.6,142.7,495.6,143.8z"
   id="path730" />
		</g>
	</g>
</g>
<g
   id="g746">
	<g
   id="g744">
		<line
   y2="143.9"
   x2="553.6"
   y1="131.4"
   x1="553.6"
   stroke-miterlimit="10"
   stroke="#000000"
   fill="none"
   id="line738" />
		<g
   id="g742">
			<path
   d="M551.7,143.8c0,1,0.8,1.9,1.9,1.9c1.1,0,1.9-0.8,1.9-1.9c0-1-0.8-1.9-1.9-1.9     C552.5,141.9,551.7,142.7,551.7,143.8z"
   id="path740" />
		</g>
	</g>
</g>
<rect
   height="40.7"
   width="40.7"
   fill="#78BE20"
   y="90.7"
   x="637.9"
   id="rect748" />
<rect
   height="40.7"
   width="40.7"
   fill="#78BE20"
   y="90.7"
   x="692.8"
   id="rect750" />
<rect
   height="29.7"
   width="151.6"
   fill="#78BE20"
   y="145.6"
   x="607.7"
   id="rect752" />
<text
   style="-inkscape-font-specification:Metropolis;font-family:Metropolis;font-weight:normal;font-style:normal;font-stretch:normal;font-variant:normal;"
   font-size="14px"
   font-family="'Metropolis-Regular'"
   fill="#FFFFFF"
   transform="matrix(1 0 0 1 625.0942 164.4755)"
   id="text6_9_">Virtual Network 2</text>
<g
   id="g763">
	<g
   id="g761">
		<line
   y2="143.8"
   x2="658.2"
   y1="131.3"
   x1="658.2"
   stroke-miterlimit="10"
   stroke="#000000"
   fill="none"
   id="line755" />
		<g
   id="g759">
			<path
   d="M656.4,143.8c0,1,0.8,1.9,1.9,1.9c1.1,0,1.9-0.8,1.9-1.9c0-1-0.8-1.9-1.9-1.9     C657.2,141.9,656.4,142.7,656.4,143.8z"
   id="path757" />
		</g>
	</g>
</g>
<g
   id="g773">
	<g
   id="g771">
		<line
   y2="143.8"
   x2="713.1"
   y1="131.3"
   x1="713.1"
   stroke-miterlimit="10"
   stroke="#000000"
   fill="none"
   id="line765" />
		<g
   id="g769">
			<path
   d="M711.3,143.8c0,1,0.8,1.9,1.9,1.9c1.1,0,1.9-0.8,1.9-1.9c0-1-0.8-1.9-1.9-1.9     C712.1,141.9,711.3,142.7,711.3,143.8z"
   id="path767" />
		</g>
	</g>
</g>
<rect
   height="40.7"
   width="40.7"
   fill="#F8981D"
   y="90.7"
   x="848.8"
   id="rect799" />
<rect
   height="29.7"
   width="151.6"
   fill="#F8981D"
   y="145.6"
   x="793.3"
   id="rect801" />
<text
   style="-inkscape-font-specification:Metropolis;font-family:Metropolis;font-weight:normal;font-style:normal;font-stretch:normal;font-variant:normal;"
   font-size="14px"
   font-family="'Metropolis-Regular'"
   fill="#FFFFFF"
   transform="matrix(1 0 0 1 810.5755 164.463)"
   id="text6_6_">Virtual Network 3</text>
<g
   id="g812">
	<g
   id="g810">
		<line
   y2="143.8"
   x2="869.1"
   y1="131.3"
   x1="869.1"
   stroke-miterlimit="10"
   stroke="#000000"
   fill="none"
   id="line804" />
		<g
   id="g808">
			<path
   d="M867.2,143.7c0,1,0.8,1.9,1.9,1.9c1,0,1.9-0.8,1.9-1.9s-0.8-1.9-1.9-1.9     C868.1,141.9,867.2,142.7,867.2,143.7z"
   id="path806" />
		</g>
	</g>
</g>
<text
   style="-inkscape-font-specification:Metropolis;font-family:Metropolis;font-weight:normal;font-style:normal;font-stretch:normal;font-variant:normal;"
   font-size="14px"
   font-family="'Metropolis-Regular'"
   fill="#FFFFFF"
   transform="matrix(1 0 0 1 858.7695 114.9728)"
   id="text6_8_">DB</text>
<g
   id="g890">
	<g
   id="g888">
		<polyline
   points="299.8,156.5     333.2,156.5 333.2,50.2 553.6,50.2 553.6,83.5   "
   stroke-miterlimit="10"
   stroke-width="2"
   stroke="#19BFD3"
   fill="none"
   id="polyline882" />
		<g
   id="g886">
			<polygon
   points="558.6,82.1 548.6,82.1 553.6,90.7    "
   fill="#19BFD3"
   id="polygon884" />
		</g>
	</g>
</g>
<g
   id="g900">
	<g
   id="g898">
		<polyline
   points="299.8,165.8     352.9,165.8 352.9,59.5 497.5,59.5 497.5,83.5   "
   stroke-miterlimit="10"
   stroke-width="2"
   stroke="#1E4488"
   fill="none"
   id="polyline892" />
		<g
   id="g896">
			<polygon
   points="502.5,82.1 492.5,82.1 497.5,90.7    "
   fill="#1E4488"
   id="polygon894" />
		</g>
	</g>
</g>
<g
   id="g910">
	<g
   id="g908">
		<polyline
   points="299.8,175.7     369.4,175.7 369.4,69.4 442.6,69.4 442.6,83.5   "
   stroke-miterlimit="10"
   stroke-width="2"
   stroke="#218FCF"
   fill="none"
   id="polyline902" />
		<g
   id="g906">
			<polygon
   points="447.6,82.1 437.6,82.1 442.6,90.7    "
   fill="#218FCF"
   id="polygon904" />
		</g>
	</g>
</g>
<text
   style="-inkscape-font-specification:Metropolis;font-family:Metropolis;font-weight:normal;font-style:normal;font-stretch:normal;font-variant:normal;"
   font-size="14px"
   font-family="'Metropolis-Regular'"
   fill="#FFFFFF"
   transform="matrix(1 0 0 1 441.8133 122.4412)"
   id="text234">1</text>
<text
   style="-inkscape-font-specification:Metropolis;font-family:Metropolis;font-weight:normal;font-style:normal;font-stretch:normal;font-variant:normal;"
   font-size="14px"
   font-family="'Metropolis-Regular'"
   fill="#FFFFFF"
   transform="matrix(1 0 0 1 494.5028 123.1715)"
   id="text236">2</text>
<text
   style="-inkscape-font-specification:Metropolis;font-family:Metropolis;font-weight:normal;font-style:normal;font-stretch:normal;font-variant:normal;"
   font-size="14px"
   font-family="'Metropolis-Regular'"
   fill="#FFFFFF"
   transform="matrix(1 0 0 1 551.722 122.5713)"
   id="text238">3</text>
<text
   style="-inkscape-font-specification:Metropolis;font-family:Metropolis;font-weight:normal;font-style:normal;font-stretch:normal;font-variant:normal;"
   font-size="14px"
   font-family="'Metropolis-Regular'"
   fill="#FFFFFF"
   transform="matrix(1 0 0 1 644.1509 106.7084)"
   id="text240">App</text>
<text
   style="-inkscape-font-specification:Metropolis;font-family:Metropolis;font-weight:normal;font-style:normal;font-stretch:normal;font-variant:normal;"
   font-size="14px"
   font-family="'Metropolis-Regular'"
   fill="#FFFFFF"
   transform="matrix(1 0 0 1 698.8401 106.136)"
   id="text242">App</text>
<text
   style="-inkscape-font-specification:Metropolis;font-family:Metropolis;font-weight:normal;font-style:normal;font-stretch:normal;font-variant:normal;"
   font-size="14px"
   font-family="'Metropolis-Regular'"
   fill="#FFFFFF"
   transform="matrix(1 0 0 1 655.8324 122.5242)"
   id="text244">1</text>
<text
   style="-inkscape-font-specification:Metropolis;font-family:Metropolis;font-weight:normal;font-style:normal;font-stretch:normal;font-variant:normal;"
   font-size="14px"
   font-family="'Metropolis-Regular'"
   fill="#FFFFFF"
   transform="matrix(1 0 0 1 710.42 121.924)"
   id="text246">2</text>
<g
   transform="matrix(0.61457233,0,0,0.61457233,63.527182,184.99442)"
   id="g1359">
	<g
   transform="translate(551.14211,281.23947)"
   id="g6">
		<path
   d="M482.6-197.9v74.6h-30.8v-74.6H482.6 M485.1-200.4h-35.8v79.6h35.8V-200.4z"
   fill="#0091DA"
   id="path4" />
	</g>
	<g
   transform="translate(551.14211,281.23947)"
   id="g22">
		<rect
   height="2.5"
   width="15"
   fill="#0091DA"
   y="-191.3"
   x="459.8"
   id="rect8" />
		<rect
   height="2.5"
   width="15"
   fill="#0091DA"
   y="-181.3"
   x="459.8"
   id="rect10" />
		<rect
   height="2.5"
   width="15"
   fill="#0091DA"
   y="-171.3"
   x="459.8"
   id="rect12" />
		<rect
   height="2.5"
   width="15"
   fill="#0091DA"
   y="-161.3"
   x="459.8"
   id="rect14" />
		<rect
   height="2.5"
   width="15"
   fill="#0091DA"
   y="-151.3"
   x="459.8"
   id="rect16" />
		<rect
   height="2.5"
   width="15"
   fill="#0091DA"
   y="-141.4"
   x="459.8"
   id="rect18" />
		<rect
   height="2.5"
   width="15"
   fill="#0091DA"
   y="-131.4"
   x="459.8"
   id="rect20" />
	</g>
	<polygon
   points="1002.9,78.1 1006.3,68.2 1030.1,68.2 1033.8,78.1 1036.2,78.1 1031.6,65.7    1004.8,65.7 1000.4,78.1  "
   fill="#0091DA"
   id="polygon24" />
	<g
   transform="translate(551.14211,281.23947)"
   id="g46">
		<g
   id="g28">
			<polygon
   points="512.5,-128.6 512.5,-193 489.9,-193 489.9,-195.5 515,-195.5 515,-126.1      489.9,-126.1 489.9,-128.6    "
   fill="#0091DA"
   id="polygon26" />
		</g>
		<g
   id="g42">
			<rect
   height="2.5"
   width="14.9"
   fill="#0091DA"
   y="-187.5"
   x="489.9"
   id="rect30" />
			<rect
   height="2.5"
   width="14.9"
   fill="#0091DA"
   y="-177.6"
   x="489.9"
   id="rect32" />
			<rect
   height="2.5"
   width="14.9"
   fill="#0091DA"
   y="-167.6"
   x="489.9"
   id="rect34" />
			<rect
   height="2.5"
   width="14.9"
   fill="#0091DA"
   y="-157.6"
   x="489.9"
   id="rect36" />
			<rect
   height="2.5"
   width="14.9"
   fill="#0091DA"
   y="-147.6"
   x="489.9"
   id="rect38" />
			<rect
   height="2.5"
   width="14.9"
   fill="#0091DA"
   y="-137.6"
   x="489.9"
   id="rect40" />
		</g>
		<polygon
   points="507.8,-208 511.9,-198.2 514.6,-198.2 509.4,-210.6 489.9,-210.6 489.9,-208   "
   fill="#0091DA"
   id="polygon44" />
	</g>
	<g
   transform="translate(551.14211,281.23947)"
   id="g68">
		<g
   id="g50">
			<polygon
   points="445,-195.5 445,-193 422.3,-193 422.3,-128.6 445,-128.6 445,-126.1      419.8,-126.1 419.8,-195.5    "
   fill="#0091DA"
   id="polygon48" />
		</g>
		<g
   id="g64">
			<rect
   height="2.5"
   width="14.9"
   fill="#0091DA"
   y="-187.5"
   x="430.1"
   id="rect52" />
			<rect
   height="2.5"
   width="14.9"
   fill="#0091DA"
   y="-177.6"
   x="430.1"
   id="rect54" />
			<rect
   height="2.5"
   width="14.9"
   fill="#0091DA"
   y="-167.6"
   x="430.1"
   id="rect56" />
			<rect
   height="2.5"
   width="14.9"
   fill="#0091DA"
   y="-157.6"
   x="430.1"
   id="rect58" />
			<rect
   height="2.5"
   width="14.9"
   fill="#0091DA"
   y="-147.6"
   x="430.1"
   id="rect60" />
			<rect
   height="2.5"
   width="14.9"
   fill="#0091DA"
   y="-137.6"
   x="430.1"
   id="rect62" />
		</g>
		<polygon
   points="427.1,-208 422.9,-198.2 420.2,-198.2 425.4,-210.6 445,-210.6 445,-208   "
   fill="#0091DA"
   id="polygon66" />
	</g>
</g>
<text
   style="-inkscape-font-specification:Metropolis;font-family:Metropolis;font-weight:normal;font-style:normal;font-stretch:normal;font-variant:normal;"
   font-size="10.6667px"
   font-family="'Metropolis-Regular'"
   fill="#717074"
   transform="matrix(1 0 0 1 732.9395 248.0043)"
   id="text282">Physical</text>
<text
   style="-inkscape-font-specification:Metropolis;font-family:Metropolis;font-weight:normal;font-style:normal;font-stretch:normal;font-variant:normal;"
   font-size="10.6667px"
   font-family="'Metropolis-Regular'"
   fill="#717074"
   transform="matrix(1 0 0 1 734.5234 265.5043)"
   id="text284">Servers</text>
<rect
   height="32.3"
   width="522.5"
   fill="#686B70"
   y="186.5"
   x="422.3"
   id="rect286" />
<text
   style="-inkscape-font-specification:Metropolis;font-family:Metropolis;font-weight:normal;font-style:normal;font-stretch:normal;font-variant:normal;"
   font-size="14px"
   font-family="'Metropolis-Regular'"
   fill="#FFFFFF"
   transform="matrix(1 0 0 1 579.0245 207.1277)"
   id="text6_1_">Network Virtualization Platform</text>
<g
   id="g301">
	<g
   id="g299">
		
			<line
   y2="160.4"
   x2="600.5"
   y1="160.4"
   x1="581.1"
   stroke-miterlimit="10"
   stroke-width="2"
   stroke="#000000"
   fill="none"
   id="line289" />
		<g
   id="g293">
			<polygon
   points="582.6,165.4 573.9,160.4 582.6,155.5    "
   id="polygon291" />
		</g>
		<g
   id="g297">
			<polygon
   points="599,165.4 607.7,160.4 599,155.5    "
   id="polygon295" />
		</g>
	</g>
</g>
<g
   id="g315">
	<g
   id="g313">
		
			<line
   y2="160.4"
   x2="785.8"
   y1="160.4"
   x1="766.4"
   stroke-miterlimit="10"
   stroke-width="2"
   stroke="#000000"
   fill="none"
   id="line303" />
		<g
   id="g307">
			<polygon
   points="767.9,165.4 759.3,160.4 767.9,155.5    "
   id="polygon305" />
		</g>
		<g
   id="g311">
			<polygon
   points="784.4,165.4 793,160.4 784.4,155.5    "
   id="polygon309" />
		</g>
	</g>
</g>
<g
   id="polyline317">
	<g
   id="g156">
		<polyline
   id="polyline150"
   points="74.5,50.2 242.9,50.2 242.9,148.1   "
   stroke-miterlimit="10"
   stroke-width="2"
   stroke="#79459B"
   fill="none" />
		<g
   id="g154">
			<polygon
   id="polygon152"
   points="237.9,146.7 242.9,155.3 247.9,146.7    "
   fill="#79459B" />
		</g>
	</g>
</g>
<g
   id="polyline327">
	<g
   id="g165">
		<polyline
   id="polyline159"
   points="74.5,367.7 242.9,367.7 242.9,207.3       "
   stroke-miterlimit="10"
   stroke-width="2"
   stroke="#79459B"
   fill="none" />
		<g
   id="g163">
			<polygon
   id="polygon161"
   points="247.9,208.7 242.9,200.1 237.9,208.7    "
   fill="#79459B" />
		</g>
	</g>
</g>
<g
   id="line337">
	<g
   id="g174">
		<line
   id="line168"
   y2="175.3"
   x2="182.4"
   y1="175.3"
   x1="74.5"
   stroke-miterlimit="10"
   stroke-width="2"
   stroke="#79459B"
   fill="none" />
		<g
   id="g172">
			<polygon
   id="polygon170"
   points="181,180.3 189.6,175.3 181,170.3    "
   fill="#79459B" />
		</g>
	</g>
</g>
</svg>
